<?xml version="1.0" encoding="UTF-8" standalone="no"?>
<svg
   xmlns:dc="http://purl.org/dc/elements/1.1/"
   xmlns:cc="http://creativecommons.org/ns#"
   xmlns:rdf="http://www.w3.org/1999/02/22-rdf-syntax-ns#"
   xmlns:svg="http://www.w3.org/2000/svg"
   xmlns="http://www.w3.org/2000/svg"
   xmlns:xlink="http://www.w3.org/1999/xlink"
   xmlns:sodipodi="http://sodipodi.sourceforge.net/DTD/sodipodi-0.dtd"
   xmlns:inkscape="http://www.inkscape.org/namespaces/inkscape"
   width="210mm"
   height="297mm"
   viewBox="0 0 210 297"
   version="1.1"
   id="svg8"
   inkscape:version="1.0.2-2 (e86c870879, 2021-01-15)"
   sodipodi:docname="Icons.svg"
   inkscape:export-filename="D:\USER_DATEN\Desktop\anymap\AnyMap Unity\AnyMap\Assets\EditorIcons\MapView.png"
   inkscape:export-xdpi="307.20001"
   inkscape:export-ydpi="307.20001">
  <defs
     id="defs2">
    <linearGradient
       inkscape:collect="always"
       id="linearGradient1027">
      <stop
         style="stop-color:#ffffff;stop-opacity:1"
         offset="0"
         id="stop1023" />
      <stop
         style="stop-color:#c4a987;stop-opacity:1"
         offset="1"
         id="stop1025" />
    </linearGradient>
    <filter
       inkscape:collect="always"
       style="color-interpolation-filters:sRGB"
       id="filter926"
       x="-0.047984211"
       width="1.0959684"
       y="-0.0480158"
       height="1.0960316">
      <feGaussianBlur
         inkscape:collect="always"
         stdDeviation="0.1365658"
         id="feGaussianBlur928" />
    </filter>
    <linearGradient
       inkscape:collect="always"
       xlink:href="#linearGradient1027"
       id="linearGradient1031"
       x1="215.22755"
       y1="663.42053"
       x2="218.42271"
       y2="660.35303"
       gradientUnits="userSpaceOnUse" />
    <linearGradient
       inkscape:collect="always"
       xlink:href="#linearGradient1027"
       id="linearGradient1075"
       gradientUnits="userSpaceOnUse"
       x1="215.22755"
       y1="663.42053"
       x2="218.42271"
       y2="660.35303" />
  </defs>
  <sodipodi:namedview
     id="base"
     pagecolor="#ffffff"
     bordercolor="#666666"
     borderopacity="1.0"
     inkscape:pageopacity="0.0"
     inkscape:pageshadow="2"
     inkscape:zoom="6.7882251"
     inkscape:cx="638.76905"
     inkscape:cy="668.81663"
     inkscape:document-units="mm"
     inkscape:current-layer="layer1"
     inkscape:document-rotation="0"
     showgrid="true"
     inkscape:window-width="1920"
     inkscape:window-height="1017"
     inkscape:window-x="1672"
     inkscape:window-y="-8"
     inkscape:window-maximized="1"
     inkscape:snap-bbox="true"
     inkscape:bbox-nodes="false"
     inkscape:snap-center="true">
    <inkscape:grid
       type="xygrid"
       id="grid833" />
  </sodipodi:namedview>
  <metadata
     id="metadata5">
    <rdf:RDF>
      <cc:Work
         rdf:about="">
        <dc:format>image/svg+xml</dc:format>
        <dc:type
           rdf:resource="http://purl.org/dc/dcmitype/StillImage" />
        <dc:title />
      </cc:Work>
    </rdf:RDF>
  </metadata>
  <g
     inkscape:label="Ebene 1"
     inkscape:groupmode="layer"
     id="layer1">
    <rect
       style="fill:#c4a987;fill-opacity:0;stroke:none;stroke-width:1;stroke-linecap:round;stroke-linejoin:round;stroke-miterlimit:4;stroke-dasharray:none;stroke-opacity:1"
       id="rect1234"
       width="18.520836"
       height="18.520834"
       x="160.07292"
       y="166.6875"
       inkscape:export-xdpi="351.08572"
       inkscape:export-ydpi="351.08572"
       inkscape:export-filename="D:\USER_DATEN\Desktop\anymap\AnyMap Unity\AnyMap\Assets\Icons\Enemy.png" />
    <rect
       style="fill:#c8cac8;fill-opacity:1;stroke:none;stroke-width:0.999997;stroke-linecap:round;stroke-linejoin:round;stroke-miterlimit:4;stroke-dasharray:none"
       id="rect1039"
       width="18.25625"
       height="18.25625"
       x="47.889584"
       y="166.6875"
       inkscape:export-xdpi="356.17392"
       inkscape:export-ydpi="356.17392" />
    <path
       style="fill:#c4a987;fill-opacity:1;stroke:none;stroke-width:0.265;stroke-linecap:butt;stroke-linejoin:miter;stroke-miterlimit:4;stroke-dasharray:none;stroke-opacity:1"
       d="m 61.11875,166.6875 h 5.027083 v 7.40833 l -5.820833,5.82084 -6.085417,-6.35 z"
       id="path1033"
       sodipodi:nodetypes="cccccc" />
    <path
       style="fill:#2c8f32;fill-opacity:1;stroke:none;stroke-width:0.265;stroke-linecap:butt;stroke-linejoin:miter;stroke-miterlimit:4;stroke-dasharray:none;stroke-opacity:1"
       d="m 64.029169,172.77292 -1.32292,3.96875 h 0.796235 l 1.39251,-1.39251 z"
       id="path1035" />
    <rect
       style="opacity:0.998;fill:#3e3e40;fill-opacity:1;stroke:none;stroke-width:1;stroke-linecap:round;stroke-linejoin:round;stroke-miterlimit:4;stroke-dasharray:none;stroke-opacity:1"
       id="rect912"
       width="9.260417"
       height="9.260417"
       x="68.791664"
       y="127"
       inkscape:export-filename="D:\USER_DATEN\Desktop\anymap\AnyMap Unity\AnyMap\Assets\Icons\OrientedMarker.png"
       inkscape:export-xdpi="702.16998"
       inkscape:export-ydpi="702.16998" />
    <rect
       style="fill:#c8cac8;fill-opacity:1;stroke:none;stroke-width:0.999993;stroke-linecap:round;stroke-linejoin:round;stroke-miterlimit:4;stroke-dasharray:none"
       id="rect845"
       width="21.166666"
       height="21.166672"
       x="91.28125"
       y="165.36458"
       inkscape:export-xdpi="307.20001"
       inkscape:export-ydpi="307.20001" />
    <path
       style="opacity:0.999;fill:#c4a987;fill-opacity:1;stroke:none;stroke-width:0.999997;stroke-linecap:butt;stroke-linejoin:miter;stroke-miterlimit:4;stroke-dasharray:none;stroke-opacity:1"
       d="m 91.389219,183.63383 5.537586,-1.38448 5.537575,1.38448 5.53759,-1.38448 4.15319,-12.46035 -5.53759,1.38448 -5.53759,-1.38448 -5.53757,1.38448 z"
       id="path847"
       sodipodi:nodetypes="ccccccccc" />
    <path
       style="opacity:0.999;fill:#b09573;fill-opacity:1;stroke:none;stroke-width:0.264582px;stroke-linecap:butt;stroke-linejoin:miter;stroke-opacity:1"
       d="m 96.926805,182.24935 5.537575,1.38448 4.15319,-12.46035 -5.53759,-1.38448 z"
       id="path853"
       sodipodi:nodetypes="ccccc" />
    <path
       style="opacity:0.999;fill:#780000;fill-opacity:1;stroke:none;stroke-width:0.264582px;stroke-linecap:butt;stroke-linejoin:miter;stroke-opacity:1"
       d="m 101.07998,176.71141 c 2.58332,-5.16695 5.16663,-10.3339 0,-10.33391 -5.166599,-2e-5 -2.583308,5.16696 0,10.33391 z"
       id="path843"
       sodipodi:nodetypes="czc" />
    <rect
       style="fill:#c8cac8;fill-opacity:1;stroke:none;stroke-width:0.999999;stroke-linecap:round;stroke-linejoin:round;stroke-miterlimit:4;stroke-dasharray:none;stroke-opacity:1"
       id="rect855"
       width="21.166656"
       height="21.166672"
       x="113.77084"
       y="165.36458"
       inkscape:export-xdpi="307.20001"
       inkscape:export-ydpi="307.20001" />
    <path
       style="fill:none;fill-opacity:1;stroke:#000000;stroke-width:1;stroke-linecap:round;stroke-linejoin:round;stroke-miterlimit:4;stroke-dasharray:none;stroke-opacity:1"
       d="m 114.4323,182.5625 3.96875,-5.29167 h 15.875 l -3.96875,5.29167 z"
       id="path859"
       sodipodi:nodetypes="ccccc" />
    <path
       style="fill:#c4a987;fill-opacity:1;stroke:#c4a987;stroke-width:1;stroke-linecap:butt;stroke-linejoin:round;stroke-miterlimit:4;stroke-dasharray:none;stroke-opacity:1"
       d="m 114.4323,178.59379 2.91042,-3.96879 h 12.96458 l 1.05833,-1.32292 2.91042,9e-5 -3.96875,5.29167 z"
       id="path863"
       sodipodi:nodetypes="ccccccc" />
    <path
       style="fill:none;fill-opacity:1;stroke:#000000;stroke-width:1;stroke-linecap:butt;stroke-linejoin:round;stroke-miterlimit:4;stroke-dasharray:none;stroke-opacity:1"
       d="m 114.43231,174.62499 3.96874,-5.29166 h 15.875 l -3.96875,5.29167 z"
       id="path861"
       sodipodi:nodetypes="ccccc" />
    <rect
       style="fill:#c4a987;fill-opacity:1;stroke:none;stroke-width:0.999999;stroke-linecap:round;stroke-linejoin:round;stroke-miterlimit:4;stroke-dasharray:none;stroke-opacity:1"
       id="rect865"
       width="21.166658"
       height="21.166672"
       x="136.26042"
       y="165.36458"
       inkscape:export-xdpi="153.60001"
       inkscape:export-ydpi="153.60001" />
    <path
       style="fill:none;stroke:#007bb7;stroke-width:3;stroke-linecap:butt;stroke-linejoin:miter;stroke-miterlimit:4;stroke-dasharray:none;stroke-opacity:1"
       d="m 138.96136,187.74391 c -0.76221,-1.46971 -0.90029,-3.03785 0.66146,-5.67751 1.26526,-2.13854 2.28458,-4.32498 2.53559,-6.83507 0.44196,-4.41963 -1.06987,-6.99672 -2.09462,-10.58334"
       id="path867"
       sodipodi:nodetypes="cssc" />
    <path
       style="fill:#2c8f32;fill-opacity:1;stroke:none;stroke-width:0.264583px;stroke-linecap:butt;stroke-linejoin:miter;stroke-opacity:1"
       d="m 154.78123,168.01041 1.32292,-3.96875 1.32292,3.96875 z"
       id="path869" />
    <path
       style="fill:#2c8f32;fill-opacity:1;stroke:none;stroke-width:0.264583px;stroke-linecap:butt;stroke-linejoin:miter;stroke-opacity:1"
       d="m 149.48957,168.01041 1.32292,-3.96875 1.32292,3.96875 z"
       id="path871" />
    <path
       style="fill:#2c8f32;fill-opacity:1;stroke:none;stroke-width:0.264583px;stroke-linecap:butt;stroke-linejoin:miter;stroke-opacity:1"
       d="m 152.1354,170.65625 1.32292,-3.96875 1.32292,3.96875 z"
       id="path873" />
    <path
       style="fill:#2c8f32;fill-opacity:1;stroke:none;stroke-width:0.264583px;stroke-linecap:butt;stroke-linejoin:miter;stroke-opacity:1"
       d="m 154.78123,173.30208 1.32292,-3.96875 1.32292,3.96875 z"
       id="path875" />
    <path
       style="fill:#2c8f32;fill-opacity:1;stroke:none;stroke-width:0.264583px;stroke-linecap:butt;stroke-linejoin:miter;stroke-opacity:1"
       d="m 149.48957,173.30208 1.32292,-3.96875 1.32292,3.96875 z"
       id="path877" />
    <path
       style="fill:#2c8f32;fill-opacity:1;stroke:none;stroke-width:0.264583px;stroke-linecap:butt;stroke-linejoin:miter;stroke-opacity:1"
       d="m 152.1354,175.94791 1.32292,-3.96875 1.32292,3.96875 z"
       id="path879" />
    <path
       style="fill:#2c8f32;fill-opacity:1;stroke:none;stroke-width:0.264583px;stroke-linecap:butt;stroke-linejoin:miter;stroke-opacity:1"
       d="m 154.78123,178.59375 1.32292,-3.96875 1.32292,3.96875 z"
       id="path881" />
    <circle
       style="fill:#ba3632;fill-opacity:1;stroke:none;stroke-width:3;stroke-linecap:round;stroke-linejoin:round;stroke-miterlimit:4;stroke-dasharray:none;stroke-opacity:1"
       id="path883"
       cx="146.84375"
       cy="175.94792"
       r="4.6302085" />
    <g
       id="g855"
       transform="matrix(1.0464733,0,0,1.0465389,-9.6717544,-32.34561)"
       style="opacity:0.999;stroke-width:0.955561">
      <path
         style="fill:#444444;fill-opacity:1;stroke:#000000;stroke-width:0.955561;stroke-linecap:butt;stroke-linejoin:round;stroke-miterlimit:4;stroke-dasharray:none;stroke-opacity:1"
         d="M 109.80208,195.79166 99.218749,206.375 100.54167,207.69791 111.125,197.11458 Z"
         id="path851" />
      <circle
         style="fill:#c4a987;fill-opacity:1;stroke:#000000;stroke-width:0.955561;stroke-linecap:round;stroke-linejoin:round;stroke-miterlimit:4;stroke-dasharray:none;stroke-opacity:1"
         id="path849"
         cx="110.55013"
         cy="196.53972"
         r="5.5397134" />
      <path
         style="fill:none;fill-opacity:1;stroke:#007bb7;stroke-width:0.955561;stroke-linecap:butt;stroke-linejoin:miter;stroke-miterlimit:4;stroke-dasharray:none;stroke-opacity:1"
         d="m 105.83333,199.76041 c 0.59612,-4.4644 5.86041,-2.28674 3.47265,-8.65408"
         id="path857" />
      <circle
         style="fill:none;fill-opacity:1;stroke:#000000;stroke-width:0.9555606;stroke-linecap:round;stroke-linejoin:round;stroke-miterlimit:4;stroke-dasharray:none;stroke-opacity:1"
         id="circle859"
         cx="110.55013"
         cy="196.53972"
         r="5.5397134" />
    </g>
    <ellipse
       style="opacity:0.999;fill:#ba3632;fill-opacity:1;stroke:none;stroke-width:3;stroke-linecap:round;stroke-linejoin:round;stroke-miterlimit:4;stroke-dasharray:none;stroke-opacity:1"
       id="circle861"
       cx="107.61529"
       cy="175.05009"
       rx="1.7304962"
       ry="1.7306046" />
    <rect
       style="fill:#c8cac8;fill-opacity:1;stroke:none;stroke-width:0.999997;stroke-linecap:round;stroke-linejoin:round;stroke-miterlimit:4;stroke-dasharray:none"
       id="rect863"
       width="21.16667"
       height="21.166672"
       x="68.791664"
       y="165.36458"
       inkscape:export-xdpi="307.20001"
       inkscape:export-ydpi="307.20001" />
    <rect
       style="opacity:0.99800004;fill:#c4a987;fill-opacity:1;stroke:none;stroke-width:1;stroke-linecap:round;stroke-linejoin:round;stroke-miterlimit:4;stroke-dasharray:none;stroke-opacity:1"
       id="rect866"
       width="15.875"
       height="15.875"
       x="71.4375"
       y="168.01042"
       rx="1.3229116"
       ry="1.3229116" />
    <path
       style="fill:none;stroke:#007bb7;stroke-width:1;stroke-linecap:butt;stroke-linejoin:miter;stroke-miterlimit:4;stroke-dasharray:none;stroke-opacity:1"
       d="m 73.744115,182.80122 c 0.314688,-0.97123 -0.869326,-1.21389 0.701584,-2.65043 2.033568,-1.85963 2.526494,-0.80646 3.819728,-2.10474 1.621024,-1.62736 -0.956596,-2.80182 -1.325214,-6.11936"
       id="path874"
       sodipodi:nodetypes="cssc" />
    <path
       style="fill:#2c8f32;fill-opacity:1;stroke:none;stroke-width:0.264583px;stroke-linecap:butt;stroke-linejoin:miter;stroke-opacity:1"
       d="m 82.015791,173.19901 1.32292,-3.96875 1.32292,3.96875 z"
       id="path877-2" />
    <path
       style="fill:#2c8f32;fill-opacity:1;stroke:none;stroke-width:0.264583px;stroke-linecap:butt;stroke-linejoin:miter;stroke-opacity:1"
       d="m 84.661621,175.84484 1.32292,-3.96875 1.32292,3.96875 z"
       id="path879-2" />
    <path
       style="opacity:0.998;fill:#2d342d;fill-opacity:1;stroke:none;stroke-width:3;stroke-linecap:round;stroke-linejoin:round;stroke-miterlimit:4;stroke-dasharray:none;stroke-opacity:1"
       d="m 72.260516,184.31472 c -0.451425,-0.144 -0.873078,-0.48199 -1.080323,-0.86596 -0.2384,-0.44168 -0.225402,-0.0103 -0.225402,-7.47903 0,-6.00519 0.0072,-6.85158 0.05975,-7.05344 0.158731,-0.60942 0.571497,-1.05176 1.189614,-1.27487 l 0.251246,-0.0907 6.68452,-0.0111 c 4.392655,-0.007 6.797609,0.003 7.014348,0.0288 0.808881,0.0979 1.433658,0.66033 1.595432,1.43608 0.06076,0.29138 0.06089,13.63813 1.16e-4,13.93037 -0.111966,0.53856 -0.4885,1.01489 -1.003435,1.26939 l -0.294251,0.14544 -7.017853,0.007 c -5.599118,0.006 -7.049373,-0.003 -7.173761,-0.0424 z m 6.314442,-0.93387 c 0.507675,-0.13507 0.900658,-0.40295 1.147942,-0.78249 0.168879,-0.25921 0.313487,-0.68539 0.313487,-0.92388 v -0.14201 l 0.321558,-0.003 c 1.259938,-0.0127 2.1691,-0.94239 2.012921,-2.0583 -0.129434,-0.92481 -0.75303,-1.55191 -3.022586,-3.03957 -0.483288,-0.31679 -0.863809,-0.58069 -0.845601,-0.58645 0.0182,-0.006 0.55929,-0.0988 1.202407,-0.20675 0.643118,-0.10794 1.335929,-0.24011 1.539584,-0.29369 0.466116,-0.12264 0.918721,-0.33761 1.255562,-0.59636 l 0.261654,-0.20099 0.163364,0.24358 c 0.45316,0.67569 0.731179,0.87971 1.343361,0.9858 l 0.39301,0.0681 0.500943,-0.23794 0.500944,-0.23794 0.197398,-0.34115 0.197397,-0.34115 v -0.41072 c 0,-0.37461 -0.01,-0.43129 -0.113908,-0.64459 -0.0703,-0.14431 -0.206428,-0.3234 -0.355537,-0.46772 -0.171862,-0.16634 -0.351369,-0.41391 -0.621736,-0.85749 -0.845624,-1.38736 -1.134242,-1.68686 -1.804638,-1.87263 -0.233095,-0.0646 -0.26534,-0.0646 -0.643118,-5.3e-4 -0.424584,0.0721 -0.478745,0.099 -0.855868,0.42466 -0.167916,0.14502 -0.294172,0.31221 -0.502323,0.66518 -0.398594,0.67591 -0.451858,0.75527 -0.549806,0.81916 -0.115652,0.0754 -0.299882,0.11458 -1.396831,0.29678 -2.477587,0.41153 -3.419282,0.73558 -4.091763,1.40806 -0.389638,0.38964 -0.59618,0.79556 -0.659693,1.2965 -0.03242,0.25568 -0.0026,0.68812 0.05828,0.84693 0.0141,0.0368 -0.03037,0.0856 -0.128109,0.14049 -0.388649,0.21844 -0.889508,0.81022 -1.072404,1.26708 -0.12474,0.3116 -0.192042,0.68043 -0.175979,0.9644 0.01206,0.21305 0.01135,0.21452 -0.150366,0.31835 -0.672264,0.43161 -0.850646,1.47309 -0.367413,2.14516 0.16248,0.22597 0.342675,0.36275 0.681072,0.51696 0.204456,0.0932 0.321143,0.17604 0.415274,0.29488 0.235066,0.2968 0.817205,0.7701 1.167397,0.94914 0.608359,0.31103 1.588188,0.56924 2.514616,0.66267 0.266676,0.0269 0.964946,-0.0139 1.169503,-0.0683 z"
       id="path872" />
    <text
       xml:space="preserve"
       style="font-size:9.20325px;line-height:1.25;font-family:sans-serif;stroke-width:0.264582;fill:#3eadc8;fill-opacity:1;filter:url(#filter926)"
       x="68.698929"
       y="135.04323"
       id="text910"><tspan
         sodipodi:role="line"
         id="tspan908"
         x="68.698929"
         y="135.04323"
         style="stroke-width:0.264582;fill:#3eadc8;fill-opacity:1;">!?</tspan></text>
    <text
       xml:space="preserve"
       style="font-size:9.20325px;line-height:1.25;font-family:sans-serif;fill:#3eadc8;fill-opacity:1;stroke-width:0.264582"
       x="68.698929"
       y="135.04323"
       id="text916"><tspan
         sodipodi:role="line"
         id="tspan914"
         x="68.698929"
         y="135.04323"
         style="fill:#3eadc8;fill-opacity:1;stroke-width:0.264582">!?</tspan></text>
    <rect
       style="fill:#51a2b2;fill-opacity:0;stroke:none;stroke-width:0.999997;stroke-linecap:round;stroke-linejoin:round;stroke-miterlimit:4;stroke-dasharray:none"
       id="rect930"
       width="21.16667"
       height="21.166672"
       x="46.302078"
       y="165.36458"
       inkscape:export-xdpi="307.20001"
       inkscape:export-ydpi="307.20001" />
    <path
       style="fill:#2c8f32;fill-opacity:1;stroke:none;stroke-width:0.264583px;stroke-linecap:butt;stroke-linejoin:miter;stroke-opacity:1"
       d="m 60.85416,173.30208 1.32292,-3.96875 1.32292,3.96875 z"
       id="path936" />
    <path
       style="fill:#007bb7;fill-opacity:1;stroke:none;stroke-width:0.264583px;stroke-linecap:butt;stroke-linejoin:miter;stroke-opacity:1"
       d="m 58.737499,169.06875 0.529167,-0.52917 c 0.264584,1.85209 -1.322916,6.87917 -0.264583,9.78959 l -0.79375,-0.26459 c -0.79375,-3.70416 0.79375,-7.14375 0.529166,-8.99583 z"
       id="path1045"
       sodipodi:nodetypes="ccccc" />
    <path
       style="fill:none;stroke:#000000;stroke-width:0.264583px;stroke-linecap:butt;stroke-linejoin:miter;stroke-opacity:1"
       d="m 59.623364,178.83367 0.344938,0.5785"
       id="path1003"
       sodipodi:nodetypes="cc" />
    <g
       id="g1071"
       transform="translate(-2.1166667,2.1166667)">
      <path
         style="fill:none;fill-opacity:1;stroke:#000000;stroke-width:0.264583px;stroke-linecap:butt;stroke-linejoin:miter;stroke-opacity:1"
         d="m 52.822126,173.51287 c 1.039797,-1.18846 3.245846,-1.86154 2.315079,-3.48446"
         id="path944"
         sodipodi:nodetypes="cc"
         inkscape:transform-center-x="-1.2694945"
         inkscape:transform-center-y="-1.74223" />
      <path
         style="fill:none;stroke:#000000;stroke-width:0.264583px;stroke-linecap:butt;stroke-linejoin:miter;stroke-opacity:1"
         d="m 55.137203,170.02841 6.614584,6.61458"
         id="path970" />
      <path
         style="fill:none;fill-opacity:1;stroke:#000000;stroke-width:0.264583px;stroke-linecap:butt;stroke-linejoin:miter;stroke-opacity:1"
         d="m 59.781648,180.70595 c 1.039797,-1.18846 3.245846,-1.86154 2.315079,-3.48446"
         id="path1005"
         sodipodi:nodetypes="cc"
         inkscape:transform-center-x="-1.2694945"
         inkscape:transform-center-y="-1.74223" />
      <path
         style="opacity:0.998;fill:url(#linearGradient1075);fill-opacity:1;stroke:none;stroke-width:3.77953;stroke-linecap:round;stroke-linejoin:round;stroke-miterlimit:4;stroke-dasharray:none;stroke-opacity:1"
         d="m 228.32224,679.86335 c -0.0684,-0.21572 -25.47979,-25.62471 -25.80816,-25.80571 -0.11929,-0.0657 0.10172,-0.25728 1.6332,-1.41535 3.62022,-2.73751 4.74119,-3.92376 5.35294,-5.66468 0.19465,-0.55392 0.22579,-0.74711 0.23152,-1.43636 l 0.007,-0.79635 4.48764,4.52333 c 2.46821,2.48784 6.28534,5.82078 7.94208,7.58571 3.33928,3.55738 7.76607,7.77918 10.83418,10.9902 2.19347,2.29566 1.65718,2.83871 1.89106,3.89808 0.23464,1.06278 0.0536,2.03014 -0.57622,3.07912 -0.32991,0.54946 -1.54617,1.81456 -2.46031,2.55911 -0.80355,0.65448 -3.39317,2.61203 -3.45528,2.61193 -0.0211,-3e-5 -0.0568,-0.0581 -0.0793,-0.12903 z"
         id="path1021"
         sodipodi:nodetypes="csssccssssssscc"
         transform="scale(0.26458333)" />
      <path
         style="fill:none;fill-opacity:1;stroke:#000000;stroke-width:0.264583px;stroke-linecap:butt;stroke-linejoin:miter;stroke-opacity:1"
         d="m 59.436709,180.12745 c 1.039797,-1.18846 3.245846,-1.86154 2.315079,-3.48446"
         id="path956"
         sodipodi:nodetypes="cc"
         inkscape:transform-center-x="-1.2694945"
         inkscape:transform-center-y="-1.74223" />
      <path
         style="fill:none;fill-opacity:1;stroke:#000000;stroke-width:0.264583px;stroke-linecap:butt;stroke-linejoin:miter;stroke-opacity:1"
         d="m 58.113793,178.80454 c 1.039797,-1.18846 3.245846,-1.86154 2.315079,-3.48446"
         id="path978"
         sodipodi:nodetypes="cc"
         inkscape:transform-center-x="-1.2694945"
         inkscape:transform-center-y="-1.74223" />
      <path
         style="fill:none;fill-opacity:1;stroke:#000000;stroke-width:0.264583px;stroke-linecap:butt;stroke-linejoin:miter;stroke-opacity:1"
         d="m 56.766471,177.39451 c 1.039797,-1.18846 3.245846,-1.86154 2.315079,-3.48446"
         id="path980"
         sodipodi:nodetypes="cc"
         inkscape:transform-center-x="-1.2694945"
         inkscape:transform-center-y="-1.74223" />
      <path
         style="fill:none;fill-opacity:1;stroke:#000000;stroke-width:0.264583px;stroke-linecap:butt;stroke-linejoin:miter;stroke-opacity:1"
         d="m 55.467959,176.1587 c 1.039797,-1.18846 3.245846,-1.86154 2.315079,-3.48446"
         id="path982"
         sodipodi:nodetypes="cc"
         inkscape:transform-center-x="-1.2694945"
         inkscape:transform-center-y="-1.74223" />
      <path
         style="fill:none;fill-opacity:1;stroke:#000000;stroke-width:0.264583px;stroke-linecap:butt;stroke-linejoin:miter;stroke-opacity:1"
         d="m 54.145043,174.83579 c 1.039797,-1.18846 3.245846,-1.86154 2.315079,-3.48446"
         id="path984"
         sodipodi:nodetypes="cc"
         inkscape:transform-center-x="-1.2694945"
         inkscape:transform-center-y="-1.74223" />
    </g>
    <g
       id="g988"
       transform="translate(-0.39136087,-17.589275)"
       style="fill:#6b6c6b;fill-opacity:1;stroke:#000000;stroke-width:0.5;stroke-miterlimit:4;stroke-dasharray:none;stroke-opacity:1">
      <path
         style="fill:#6b6c6b;fill-opacity:1;stroke:#000000;stroke-width:0.5;stroke-linecap:butt;stroke-linejoin:round;stroke-miterlimit:4;stroke-dasharray:none;stroke-opacity:1"
         d="m 53.638758,196.75079 c -1.918367,2.09097 -1.918939,2.22726 -4.29948,4.19473 l 1.322916,1.32292 c 2.204887,-2.55711 2.349382,-2.72439 4.299481,-4.19474 z"
         id="path974"
         sodipodi:nodetypes="ccccc" />
      <path
         style="fill:#6b6c6b;fill-opacity:1;stroke:#000000;stroke-width:0.5;stroke-linecap:butt;stroke-linejoin:round;stroke-miterlimit:4;stroke-dasharray:none;stroke-opacity:1"
         d="m 51.593748,192.61668 6.614583,6.61458 -1.322917,1.32292 -6.614583,-6.61459 z"
         id="path942" />
      <path
         style="fill:#6b6c6b;fill-opacity:1;stroke:#000000;stroke-width:0.5;stroke-linecap:butt;stroke-linejoin:round;stroke-miterlimit:4;stroke-dasharray:none;stroke-opacity:1"
         d="m 56.885413,200.55418 0.57907,0.57907 1.321231,-1.32123 -0.577384,-0.58076 z"
         id="path1037" />
    </g>
    <path
       style="fill:#2c8f32;stroke:none;stroke-width:0.264583px;stroke-linecap:butt;stroke-linejoin:miter;stroke-opacity:1;fill-opacity:1"
       d="m 64.558333,173.30208 1.322916,-3.96875 0.264583,0.79375 v 3.175 z"
       id="path1043" />
    <rect
       style="fill:#191d51;fill-opacity:0.63806969;stroke:none;stroke-width:0.999997;stroke-linecap:round;stroke-linejoin:round;stroke-miterlimit:4;stroke-dasharray:none"
       id="rect1077"
       width="18.520834"
       height="18.520832"
       x="17.197916"
       y="166.6875"
       inkscape:export-xdpi="2808.6899"
       inkscape:export-ydpi="2808.6899"
       inkscape:export-filename="D:\USER_DATEN\Desktop\anymap\AnyMap Unity\AnyMap\Assets\MapLayers\MapBackground.png" />
    <g
       id="g1105"
       style="stroke-width:0.1;stroke-miterlimit:4;stroke-dasharray:0.2,0.2;stroke:#000000;stroke-opacity:1;stroke-dashoffset:0">
      <path
         style="fill:none;stroke:#000000;stroke-width:0.1;stroke-linecap:butt;stroke-linejoin:miter;stroke-opacity:1;stroke-miterlimit:4;stroke-dasharray:0.2,0.2;stroke-dashoffset:0"
         d="m 18.520833,166.6875 v 18.52083"
         id="path1079" />
      <path
         style="fill:none;stroke:#000000;stroke-width:0.1;stroke-linecap:butt;stroke-linejoin:miter;stroke-opacity:1;stroke-miterlimit:4;stroke-dasharray:0.2,0.2;stroke-dashoffset:0"
         d="m 23.8125,166.6875 v 18.52083"
         id="path1081" />
      <path
         style="fill:none;stroke:#000000;stroke-width:0.1;stroke-linecap:butt;stroke-linejoin:miter;stroke-opacity:1;stroke-miterlimit:4;stroke-dasharray:0.2,0.2;stroke-dashoffset:0"
         d="m 29.104167,166.6875 v 18.52083"
         id="path1083" />
      <path
         style="fill:none;stroke:#000000;stroke-width:0.1;stroke-linecap:butt;stroke-linejoin:miter;stroke-opacity:1;stroke-miterlimit:4;stroke-dasharray:0.2,0.2;stroke-dashoffset:0"
         d="m 34.395833,166.6875 v 18.52083"
         id="path1085" />
      <path
         style="fill:none;stroke:#000000;stroke-width:0.1;stroke-linecap:butt;stroke-linejoin:miter;stroke-opacity:1;stroke-miterlimit:4;stroke-dasharray:0.2,0.2;stroke-dashoffset:0"
         d="M 35.718748,168.01042 H 17.197918"
         id="path1087" />
      <path
         style="fill:none;stroke:#000000;stroke-width:0.1;stroke-linecap:butt;stroke-linejoin:miter;stroke-opacity:1;stroke-miterlimit:4;stroke-dasharray:0.2,0.2;stroke-dashoffset:0"
         d="M 35.718748,173.30208 H 17.197918"
         id="path1089" />
      <path
         style="fill:none;stroke:#000000;stroke-width:0.1;stroke-linecap:butt;stroke-linejoin:miter;stroke-opacity:1;stroke-miterlimit:4;stroke-dasharray:0.2,0.2;stroke-dashoffset:0"
         d="M 35.718748,178.59375 H 17.197918"
         id="path1091" />
      <path
         style="fill:none;stroke:#000000;stroke-width:0.1;stroke-linecap:butt;stroke-linejoin:miter;stroke-opacity:1;stroke-miterlimit:4;stroke-dasharray:0.2,0.2;stroke-dashoffset:0"
         d="M 35.718748,183.88542 H 17.197918"
         id="path1093" />
    </g>
    <g
       id="g1226"
       style="stroke-width:0.05;stroke-miterlimit:4;stroke-dasharray:0.1,0.1;stroke:#000000;stroke-opacity:1;stroke-dashoffset:0">
      <path
         style="fill:none;stroke:#000000;stroke-width:0.05;stroke-linecap:butt;stroke-linejoin:miter;stroke-opacity:1;stroke-miterlimit:4;stroke-dasharray:0.1,0.1;stroke-dashoffset:0"
         d="M 35.71875,169.33333 H 17.19792"
         id="path1115" />
      <path
         style="fill:none;stroke:#000000;stroke-width:0.05;stroke-linecap:butt;stroke-linejoin:miter;stroke-opacity:1;stroke-miterlimit:4;stroke-dasharray:0.1,0.1;stroke-dashoffset:0"
         d="M 35.71875,174.62499 H 17.19792"
         id="path1117" />
      <path
         style="fill:none;stroke:#000000;stroke-width:0.05;stroke-linecap:butt;stroke-linejoin:miter;stroke-opacity:1;stroke-miterlimit:4;stroke-dasharray:0.1,0.1;stroke-dashoffset:0"
         d="M 35.71875,179.91666 H 17.19792"
         id="path1119" />
      <g
         id="g1140"
         transform="translate(2e-6,2.64583)"
         style="stroke-width:0.05;stroke-miterlimit:4;stroke-dasharray:0.1,0.1;stroke:#000000;stroke-opacity:1;stroke-dashoffset:0">
        <path
           style="fill:none;stroke:#000000;stroke-width:0.05;stroke-linecap:butt;stroke-linejoin:miter;stroke-opacity:1;stroke-miterlimit:4;stroke-dasharray:0.1,0.1;stroke-dashoffset:0"
           d="M 35.718748,168.01042 H 17.197918"
           id="path1132" />
        <path
           style="fill:none;stroke:#000000;stroke-width:0.05;stroke-linecap:butt;stroke-linejoin:miter;stroke-opacity:1;stroke-miterlimit:4;stroke-dasharray:0.1,0.1;stroke-dashoffset:0"
           d="M 35.718748,173.30208 H 17.197918"
           id="path1134" />
        <path
           style="fill:none;stroke:#000000;stroke-width:0.05;stroke-linecap:butt;stroke-linejoin:miter;stroke-opacity:1;stroke-miterlimit:4;stroke-dasharray:0.1,0.1;stroke-dashoffset:0"
           d="M 35.718748,178.59375 H 17.197918"
           id="path1136" />
      </g>
      <path
         style="fill:none;stroke:#000000;stroke-width:0.05;stroke-linecap:butt;stroke-linejoin:miter;stroke-opacity:1;stroke-miterlimit:4;stroke-dasharray:0.1,0.1;stroke-dashoffset:0"
         d="M 35.71875,171.97917 H 17.19792"
         id="path1144" />
      <path
         style="fill:none;stroke:#000000;stroke-width:0.05;stroke-linecap:butt;stroke-linejoin:miter;stroke-opacity:1;stroke-miterlimit:4;stroke-dasharray:0.1,0.1;stroke-dashoffset:0"
         d="M 35.71875,177.27083 H 17.19792"
         id="path1146" />
      <path
         style="fill:none;stroke:#000000;stroke-width:0.05;stroke-linecap:butt;stroke-linejoin:miter;stroke-opacity:1;stroke-miterlimit:4;stroke-dasharray:0.1,0.1;stroke-dashoffset:0"
         d="M 35.71875,182.5625 H 17.19792"
         id="path1148" />
      <path
         style="fill:none;stroke:#000000;stroke-width:0.05;stroke-linecap:butt;stroke-linejoin:miter;stroke-opacity:1;stroke-miterlimit:4;stroke-dasharray:0.1,0.1;stroke-dashoffset:0"
         d="M 33.07292,185.20833 V 166.6875"
         id="path1186" />
      <path
         style="fill:none;stroke:#000000;stroke-width:0.05;stroke-linecap:butt;stroke-linejoin:miter;stroke-opacity:1;stroke-miterlimit:4;stroke-dasharray:0.1,0.1;stroke-dashoffset:0"
         d="M 27.78126,185.20833 V 166.6875"
         id="path1188" />
      <path
         style="fill:none;stroke:#000000;stroke-width:0.05;stroke-linecap:butt;stroke-linejoin:miter;stroke-opacity:1;stroke-miterlimit:4;stroke-dasharray:0.1,0.1;stroke-dashoffset:0"
         d="M 22.48959,185.20833 V 166.6875"
         id="path1190" />
      <g
         id="g1198"
         transform="rotate(90,25.135419,174.625)"
         style="stroke-width:0.05;stroke-miterlimit:4;stroke-dasharray:0.1,0.1;stroke:#000000;stroke-opacity:1;stroke-dashoffset:0">
        <path
           style="fill:none;stroke:#000000;stroke-width:0.05;stroke-linecap:butt;stroke-linejoin:miter;stroke-opacity:1;stroke-miterlimit:4;stroke-dasharray:0.1,0.1;stroke-dashoffset:0"
           d="M 35.718748,168.01042 H 17.197918"
           id="path1192" />
        <path
           style="fill:none;stroke:#000000;stroke-width:0.05;stroke-linecap:butt;stroke-linejoin:miter;stroke-opacity:1;stroke-miterlimit:4;stroke-dasharray:0.1,0.1;stroke-dashoffset:0"
           d="M 35.718748,173.30208 H 17.197918"
           id="path1194" />
        <path
           style="fill:none;stroke:#000000;stroke-width:0.05;stroke-linecap:butt;stroke-linejoin:miter;stroke-opacity:1;stroke-miterlimit:4;stroke-dasharray:0.1,0.1;stroke-dashoffset:0"
           d="M 35.718748,178.59375 H 17.197918"
           id="path1196" />
      </g>
      <path
         style="fill:none;stroke:#000000;stroke-width:0.05;stroke-linecap:butt;stroke-linejoin:miter;stroke-opacity:1;stroke-miterlimit:4;stroke-dasharray:0.1,0.1;stroke-dashoffset:0"
         d="M 30.42708,185.20833 V 166.6875"
         id="path1200" />
      <path
         style="fill:none;stroke:#000000;stroke-width:0.05;stroke-linecap:butt;stroke-linejoin:miter;stroke-opacity:1;stroke-miterlimit:4;stroke-dasharray:0.1,0.1;stroke-dashoffset:0"
         d="M 25.13542,185.20833 V 166.6875"
         id="path1202" />
      <path
         style="fill:none;stroke:#000000;stroke-width:0.05;stroke-linecap:butt;stroke-linejoin:miter;stroke-opacity:1;stroke-miterlimit:4;stroke-dasharray:0.1,0.1;stroke-dashoffset:0"
         d="M 19.84375,185.20833 V 166.6875"
         id="path1204" />
    </g>
    <g
       id="g1238"
       transform="translate(-1.3229208,-1.6321741e-5)">
      <path
         style="fill:#ed6666;fill-opacity:1;stroke:#000000;stroke-width:0.5;stroke-linecap:butt;stroke-linejoin:round;stroke-miterlimit:4;stroke-dasharray:none;stroke-opacity:1"
         d="m 174.625,175.94792 h -1.32292 l -2.64583,5.29166 -2.64583,-5.29166 h -1.32292 l 3.96875,7.9375 z"
         id="path1232"
         sodipodi:nodetypes="ccccccc" />
      <path
         style="fill:#ed6666;fill-opacity:1;stroke:#000000;stroke-width:0.5;stroke-linecap:butt;stroke-linejoin:round;stroke-miterlimit:4;stroke-dasharray:none;stroke-opacity:1"
         d="m 162.71875,183.88542 7.9375,-15.87501 7.9375,15.87501 h -1.32292 l -5.29166,-7.9375 -1.32292,2.64583 -1.32292,-2.64583 -5.29166,7.9375 z"
         id="path1230"
         sodipodi:nodetypes="ccccccccc" />
    </g>
  </g>
</svg>
