<?xml version="1.0" encoding="UTF-8" standalone="no"?>
<!-- Created with Inkscape (http://www.inkscape.org/) -->

<svg
   xmlns:dc="http://purl.org/dc/elements/1.1/"
   xmlns:cc="http://creativecommons.org/ns#"
   xmlns:rdf="http://www.w3.org/1999/02/22-rdf-syntax-ns#"
   xmlns:svg="http://www.w3.org/2000/svg"
   xmlns="http://www.w3.org/2000/svg"
   xmlns:sodipodi="http://sodipodi.sourceforge.net/DTD/sodipodi-0.dtd"
   xmlns:inkscape="http://www.inkscape.org/namespaces/inkscape"
   width="210mm"
   height="297mm"
   viewBox="0 0 210 297"
   version="1.1"
   id="svg8"
   inkscape:version="0.92.4 (5da689c313, 2019-01-14)"
   sodipodi:docname="Height.svg">
  <defs
     id="defs2" />
  <sodipodi:namedview
     id="base"
     pagecolor="#ffffff"
     bordercolor="#666666"
     borderopacity="1.0"
     inkscape:pageopacity="0.0"
     inkscape:pageshadow="2"
     inkscape:zoom="0.49497475"
     inkscape:cx="282.08518"
     inkscape:cy="590.93419"
     inkscape:document-units="mm"
     inkscape:current-layer="layer5"
     showgrid="false"
     inkscape:snap-global="true"
     inkscape:window-width="1366"
     inkscape:window-height="705"
     inkscape:window-x="-8"
     inkscape:window-y="-8"
     inkscape:window-maximized="1" />
  <metadata
     id="metadata5">
    <rdf:RDF>
      <cc:Work
         rdf:about="">
        <dc:format>image/svg+xml</dc:format>
        <dc:type
           rdf:resource="http://purl.org/dc/dcmitype/StillImage" />
        <dc:title />
      </cc:Work>
    </rdf:RDF>
  </metadata>
  <g
     inkscape:groupmode="layer"
     id="layer5"
     inkscape:label="Background"
     style="display:inline">
    <rect
       inkscape:export-ydpi="135.46666"
       inkscape:export-xdpi="135.46666"
       ry="1.1368697e-13"
       rx="1.1368695e-13"
       y="37.809429"
       x="11.339298"
       height="192"
       width="192"
       id="rect845"
       style="display:inline;opacity:1;fill:#ffffff;fill-opacity:1;stroke:none;stroke-width:0.5;stroke-linecap:round;stroke-linejoin:round;stroke-miterlimit:4;stroke-dasharray:none;stroke-dashoffset:0;stroke-opacity:1;paint-order:fill markers stroke" />
  </g>
  <g
     inkscape:groupmode="layer"
     id="layer2"
     inkscape:label="Landscape"
     style="display:inline">
    <g
       id="g6010"
       style="fill:#b66310;fill-opacity:0.16720258;stroke:none">
      <path
         inkscape:connector-curvature="0"
         id="path6006"
         d="m 95.627975,35.440477 c -2.287225,4.266771 -2.028873,14.980054 0.377975,17.386903 0.296625,0.296624 0.503577,3.527385 0.755955,3.779763 0.557509,0.557509 1.048599,1.426575 1.511903,1.889879 0.262398,0.262401 0.871529,2.383436 1.13393,2.645833 1.072652,1.07265 3.317952,2.562006 4.535712,3.779764 0.28173,0.281725 0.0962,0.852202 0.37798,1.133927 0.24779,0.247796 0.94456,0.566587 1.13393,0.755952 0.15981,0.159813 0.47132,1.22728 0.75595,1.511906 0.17818,0.178181 0.57777,-0.178179 0.75595,0 0.17818,0.178181 -0.17818,0.577773 0,0.755951 0.44097,0.440973 1.07093,0.692957 1.51191,1.13393 0.37797,0.377976 0,1.511904 0.37797,1.889879 0.89072,0.89072 1.38821,2.900112 2.26786,3.779764 2.32951,2.329513 5.07645,3.942519 7.18155,6.047618 0.32444,0.324443 1.23742,0.206991 1.5119,0.755952 1.64639,3.292779 6.56224,8.074144 9.07143,10.583333 0.17818,0.178181 0.57777,-0.178179 0.75595,0 0.37281,0.372806 0.85847,0.858472 1.13393,1.13393 0.25211,0.252108 -0.25211,0.503843 0,0.755952 0.41936,0.419356 1.53503,1.157052 1.88988,1.511905 0.25149,0.251484 -0.25148,0.504468 0,0.755952 0.25198,0.251984 0.88195,0.125992 1.13393,0.377976 0.13093,0.130932 0.90578,2.417684 1.13393,2.645834 0.51615,0.51615 1.37373,1.37373 1.88988,1.88988 0.18899,0.18899 -0.18899,0.94494 0,1.13393 0.44097,0.44097 0.69296,1.07093 1.13393,1.5119 0.52216,0.52217 0.23379,2.87963 0.75595,3.40179 0.78205,0.78205 -0.0306,-1.19507 0.75595,0.37797 0.33524,0.67047 0.30281,2.1927 0.75595,2.64584 0.37452,0.37451 1.33731,1.3373 1.88989,1.88988 0.17817,0.17818 0.57777,-0.17818 0.75595,0 0.12599,0.12599 0.25198,1.00794 0.37797,1.13393 0.35306,0.35306 1.53683,0.40289 1.88989,0.75595 0.60283,0.60283 0.90907,1.28705 1.5119,1.88988 0.17818,0.17818 0.57777,-0.17818 0.75595,0 0.25211,0.25211 -0.25211,0.50384 0,0.75595 0.37281,0.37281 1.23645,0.4805 1.51191,0.75596 0.17818,0.17818 -0.17818,0.57777 0,0.75595 0.30068,0.30068 1.6183,0.48437 1.88988,0.75595 0.46185,0.46186 1.19755,1.19755 1.5119,1.51191 0.17818,0.17818 -0.17818,0.57777 0,0.75595 0.28173,0.28173 0.85221,0.0962 1.13393,0.37798 0.3162,0.3162 0.77661,1.15458 1.13393,1.5119 0.17818,0.17818 0.57777,-0.17818 0.75595,0 1.99263,1.99262 3.37263,3.7506 4.91369,5.29167 0.58185,0.58184 2.11847,0.98453 2.64584,1.5119 0.31498,0.31498 0.44097,0.81895 0.75595,1.13393 0.17818,0.17818 0.57777,-0.17818 0.75595,0 1.36664,1.36664 3.20776,2.54882 4.91369,3.40178 1.57305,0.78653 -0.40407,-0.0261 0.37798,0.75596 0.65432,0.65432 2.2258,1.09187 3.02381,1.88988 0.0891,0.0891 0,0.25198 0,0.37798 0.12599,0.25198 0.17876,0.55674 0.37797,0.75595 1.70108,1.70107 3.52707,3.65235 4.53572,5.66964 1.09813,2.19626 4.1756,3.79762 5.66964,5.29167 0.37281,0.3728 1.23645,0.48049 1.51191,0.75595 0.31877,0.31877 1.94908,0.43718 2.26785,0.75595 0.56697,0.56696 0.94494,1.32292 1.51191,1.88988 0.17818,0.17818 0.57777,-0.17818 0.75595,0 0.76002,0.76002 1.69831,1.69831 2.26786,2.26786 0.12599,0.12599 0.25198,1.00794 0.37797,1.13393 0.17818,0.17818 0.57777,-0.17818 0.75596,0 0.15838,0.15839 0.26343,0.90485 0.37797,1.13393 0.30421,0.60842 4.56975,3.79677 5.29167,4.15774 0.45682,0.22841 5.70778,3.74161 6.42559,3.0238 0.84162,-0.84161 1.21572,-8.01929 1.88988,-8.69345 0.96962,-0.96962 -0.6379,-4.77182 0,-6.04762 0.37073,-0.74145 0.58542,-4.74315 0.75595,-4.91369 1.59697,-1.59696 1.13393,-14.51367 1.13393,-18.52083 0,-1.69396 0.54768,-5.87792 -0.37797,-6.80357 -0.0232,-0.0232 -0.0153,-9.85799 -0.75596,-11.33929 -0.77554,-1.55109 0.60202,-15.272979 0,-15.874999 -0.93842,-0.938424 -0.37797,-5.099624 -0.37797,-6.80357 0,-3.4115 -0.11841,-12.2364 1.13393,-14.741072 0.45896,-0.91793 -0.68936,-3.468376 0,-4.157737 0.0891,-0.08909 0.28888,0.08909 0.37797,0 0.14728,-0.147275 0,-1.281247 0,-1.511906 0,-1.9588 0.75596,-3.70995 0.75596,-5.291666 0,-0.377976 -0.26727,-0.866659 0,-1.133928 0.50396,-0.503968 0.37797,0.62996 0.37797,-0.377976 0,-0.975312 -0.44267,-3.650369 0,-4.535715 1.11942,-2.23883 2.7e-4,-15.118659 -1.13393,-16.252975 -0.17818,-0.178181 -0.57777,0.178178 -0.75595,0 -0.77664,-0.776642 -1.13608,-1.514055 -1.88988,-2.267858 -0.36338,-0.363378 -1.40475,-0.270822 -1.88988,-0.755951 -0.78204,-0.782048 1.19507,0.03057 -0.37798,-0.755955 -1.88638,-0.943192 -4.0082,-0.755951 -6.42559,-0.755951 -0.25198,0 -0.57777,0.178181 -0.75595,0 -1.38243,-1.382427 -4.50424,0.204724 -6.4256,-0.755952 -2.66705,-1.333526 -17.17579,-0.377976 -21.16666,-0.377976 -2.18068,0 -11.64357,-0.451678 -12.47322,0.377976 -0.30702,0.307023 -6.03934,-0.193124 -7.18155,0.377976 -1.78422,0.892114 -9.74624,-0.459113 -10.96131,0.755952 -0.62168,0.62168 -6.04872,-0.566412 -7.18154,0 -2.38713,1.193564 -7.01798,0.377975 -9.82738,0.377975 -7.6814,0 -18.91997,-0.939649 -25.702385,0.755955 z"
         style="fill:#feffff;fill-opacity:0.16720258;stroke:none;stroke-width:0.26458332px;stroke-linecap:butt;stroke-linejoin:miter;stroke-opacity:1" />
      <path
         inkscape:connector-curvature="0"
         id="path6004"
         d="m 11.407232,106.50835 c -0.02265,-1.51469 -0.171061,-3.03272 -0.06795,-4.54407 0.0018,-0.0261 2.425584,0 2.645833,0 1.492826,0 3.109669,1.13393 4.157738,1.13393 1.309807,0 3.808326,0.40654 4.535714,1.13393 0.632178,0.63218 5.613285,-0.43433 6.803571,0.75595 0.331359,0.33136 12.141856,-0.33135 12.473215,0 0.755145,0.75515 1.289193,1.2892 1.889882,1.88989 0.251984,0.25198 0.125992,0.88194 0.377975,1.13392 0.02492,0.0249 2.36533,0.0975 2.645834,0.37798 1.466416,1.46642 12.100298,2.26617 15.497024,1.13393 0.648123,-0.21604 1.662951,0.30245 2.267855,0 0.112691,-0.0563 0,-0.25198 0,-0.37798 0.251986,-0.12599 0.488682,-0.28888 0.755954,-0.37798 0.448873,-0.14962 1.587907,0.30198 1.889879,0 1.326462,-1.32645 3.945842,-1.3 5.291667,-2.64583 1.165606,-1.1656 3.076254,-1.56435 4.157739,-2.64583 0.381664,-0.38166 7.764899,-0.55058 8.315475,0 0.18899,0.18899 0.944941,-0.18899 1.13393,0 0.576353,0.57635 1.832941,1.45497 2.645834,2.26786 0.314978,0.31498 1.196924,0.063 1.511903,0.37797 0.314981,0.31498 0.440973,0.81895 0.755952,1.13393 0.178181,0.17818 0.577773,-0.17818 0.755954,0 0.799034,0.79904 1.885053,1.1291 2.645833,1.88988 0.422426,0.42243 2.223405,0.33353 2.645833,0.75595 0.188987,0.18899 0.188987,0.56697 0.377976,0.75596 0.422426,0.42242 2.223408,0.33352 2.645838,0.75595 0.50397,0.50397 1.00794,1.00794 1.5119,1.5119 0.18899,0.18899 0.94494,-0.18899 1.13393,0 0.90651,0.90651 1.96194,1.96194 3.02381,3.02381 1.10278,1.10278 1.15466,3.04455 2.26786,4.15774 0.12599,0.12599 1.00793,0.25199 1.13393,0.37798 2.99848,2.99848 5.29816,5.29815 7.9375,7.9375 0.21907,0.21907 1.29283,0.53687 1.5119,0.75595 0.97469,0.97469 1.62026,2.48457 2.26786,3.77976 0.78652,1.57305 -0.0261,-0.40407 0.75595,0.37798 0.12599,0.12599 0.25199,1.00793 0.37798,1.13393 0.90386,0.90386 1.25447,1.37501 1.88988,2.64583 0.14928,0.29856 2.60065,2.60065 3.02381,3.02381 0.17818,0.17818 0.57777,-0.17818 0.75595,0 0.27546,0.27546 0.38315,1.1391 0.75595,1.5119 0.17818,0.17818 0.57777,-0.17818 0.75596,0 0.54116,0.54117 1.23767,1.23768 1.88988,1.88988 0.58827,0.58828 0.93393,3.95775 1.88988,4.91369 0.56696,0.56697 -0.18899,2.45685 0.37797,3.02381 0.24438,0.24438 0.27574,4.0555 0.75596,4.53572 1.23168,1.23168 2.63056,2.63057 3.77976,3.77976 0.17818,0.17818 -0.17818,0.57777 0,0.75595 0.17818,0.17818 0.57777,-0.17818 0.75595,0 0.63868,0.63868 0.92047,1.67642 1.5119,2.26786 0.17819,0.17818 0.57778,-0.17818 0.75596,0 0.18899,0.18899 -0.18899,0.94494 0,1.13393 0.43178,0.43178 1.15087,1.15087 1.5119,1.5119 0.43178,0.43179 0.39493,1.90683 0.75595,2.26786 1.69831,1.69831 2.28965,4.17952 4.15774,6.04762 0.17818,0.17818 -0.17818,0.57777 0,0.75595 0.21908,0.21908 1.29283,0.53688 1.51191,0.75595 0.17818,0.17818 -0.17818,0.57778 0,0.75596 0.38668,0.38668 1.05363,1.05363 1.5119,1.5119 0.92269,0.92269 2.05677,6.59249 2.26786,6.80357 1.49186,1.49186 1.67421,4.32005 3.40178,6.04762 0.84114,0.84114 -0.29689,10.28644 1.51191,12.09524 0.62996,0.62996 -0.62996,3.1498 0,3.77976 0.53867,0.53867 2.16689,10.6843 1.13393,11.71726 -0.21891,0.21891 0.18408,11.91115 -0.37798,12.47322 -0.37797,0.37797 -1.5119,0 -1.88988,0.37797 -1.4677,1.4677 -13.42352,3.40179 -17.00893,3.40179 -0.83834,0 -7.81754,-0.11996 -7.9375,0 -1.00793,1.00794 -4.6617,-0.62996 -5.66964,0.37798 -1.19973,1.19972 -7.26177,0.0802 -7.9375,0.75595 -0.99861,0.99861 -13.94866,0.75595 -16.63095,0.75595 -2.099841,0 -11.708587,-0.57131 -12.851198,0 -0.93413,0.46707 0.130472,0.37798 -0.755951,0.37798 -12.014158,0 -23.610046,-0.37798 -35.529761,-0.37798 -0.912378,0 -9.32399,0.12541 -9.449405,0 -0.502524,-0.50252 -4.482285,-1.45848 -4.535715,-1.5119 -1.096132,-1.09614 -2.761091,-2.7611 -4.157737,-4.15774 -0.332581,-0.33258 -1.642113,-0.50819 -1.889882,-0.75595 -0.178178,-0.17818 0.178181,-0.57778 0,-0.75596 -0.3092,-0.3092 -1.476647,-0.34272 -1.889881,-0.75595 -1.635475,-1.63548 -4.814187,-4.43621 -6.80357,-6.42559 -0.17818,-0.17818 0.178179,-0.57778 0,-0.75596 -0.17818,-0.17818 -0.577773,0.17818 -0.755953,0 -0.782693,-0.78269 -2.048036,-2.04803 -3.023809,-3.02381 -0.17818,-0.17818 -0.577773,0.17818 -0.755953,0 -1.745539,-1.74554 -5.611972,-1.83221 -7.559523,-3.77976 -0.377977,-0.37797 -1.5119052,0 -1.8898813,-0.37797 -0.7394456,-0.73945 -0.3779763,-3.52974 -0.3779763,-4.9137 0,-1.18254 -0.132039,-11.96319 0,-12.09523 0.6525474,-0.65255 1.4667356,-5.38201 0.7559524,-6.80357 -0.5814497,-1.1629 -0.4508751,-1.96278 -1.1339285,-2.64584 -0.4845052,-0.4845 0.3187025,-2.3864 0,-3.02381 -1.7840221,-3.56804 -1.5119048,-16.68374 -1.5119048,-21.54464 0,-13.22917 0,-26.45833 0,-39.6875 0,-0.84958 -0.083567,-9.74381 0,-9.82738 0.7189623,-0.71896 0.2148517,-2.48271 1.1339285,-3.40179 1.1917272,-1.19172 2.505979,-1.41832 3.091756,-3.39343 z"
         style="fill:#faffff;fill-opacity:0.16720258;stroke:none;stroke-width:0.26458332px;stroke-linecap:butt;stroke-linejoin:miter;stroke-opacity:1" />
    </g>
    <rect
       style="opacity:1;fill:#808080;fill-opacity:1;stroke:none;stroke-width:0.5;stroke-linecap:round;stroke-linejoin:round;stroke-miterlimit:4;stroke-dasharray:none;stroke-dashoffset:0;stroke-opacity:1;paint-order:fill markers stroke"
       id="rect4518"
       width="192"
       height="192"
       x="11.339293"
       y="37.809437"
       rx="1.1368695e-13"
       ry="1.1368697e-13"
       inkscape:export-xdpi="135.47"
       inkscape:export-ydpi="135.47" />
    <path
       style="fill:#ffffff;fill-opacity:0.47058824;stroke:none;stroke-width:0.26458332px;stroke-linecap:butt;stroke-linejoin:miter;stroke-opacity:0.39215686"
       d="m 113.01488,37.330356 c -0.4385,1.419592 -0.80393,2.315834 -1.51191,3.023809 -0.10005,0.100055 0,0.978291 0,1.13393 0,2.691215 1.30542,3.195301 3.02381,4.913691 0.21908,0.219075 0.53688,1.292828 0.75596,1.511903 0.429,0.429003 1.46088,1.082905 1.88988,1.511906 0.64603,0.64603 -0.64603,8.425399 0,9.071427 2.00682,2.006825 4.66716,5.299848 6.42559,7.9375 0.55811,0.837158 2.56029,1.718794 3.02381,2.645833 1.60053,3.201062 0.89496,6.703613 2.26786,9.449406 0.56282,1.125643 1.33606,1.336059 2.26786,2.267858 0.0696,0.06965 0.30833,1.064281 0.37797,1.133927 0.74377,0.743765 1.47031,1.470303 2.26786,2.267858 0.42939,0.429394 0.26133,1.525918 0.75595,2.267857 0.0857,0.128511 0.63248,0.254503 0.75595,0.377976 0.14011,0.140102 0.26122,1.27839 0.37798,1.511906 0.93925,1.878494 2.06371,3.953589 3.02381,4.913688 0.48615,0.486153 0.47253,2.078992 0.75595,2.645833 0.12871,0.257416 0.91121,0.533236 1.13393,0.755954 0.17818,0.178179 -0.17818,0.577774 0,0.755952 0.82004,0.820042 2.31486,2.314863 3.40179,3.40178 0.17818,0.17819 0.57777,-0.17817 0.75595,0 0.67297,0.67298 0.98632,1.3643 1.5119,1.88989 0.66069,0.66068 2.25532,1.12138 3.02381,1.88988 0.126,0.12599 0.25199,1.00793 0.37798,1.13393 1.7845,1.78449 3.89968,3.52171 5.29167,4.91369 0.17818,0.17818 0.57777,-0.17818 0.75595,0 0.23222,0.23221 0.24971,0.8808 0.75595,1.13392 1.30872,0.65437 5.191,2.54517 5.66964,3.02382 0.50896,0.50895 4.94083,1.16106 5.66965,1.88987 0.23503,0.23504 6.31737,1.40369 7.55952,2.64584 0.57916,0.57916 4.55914,0.77937 5.66964,1.88988 0.126,0.12599 1.00794,0.25198 1.13393,0.37798 0.93119,0.93119 1.55579,1.93376 2.26786,2.64583 0.48894,0.48895 1.36577,0.9878 1.88988,1.5119 0.18937,0.18937 1.26411,0.13019 1.5119,0.37798 0.19564,0.19564 0.56032,0.93829 0.75596,1.13393 0.72459,0.72459 4.37101,1.3472 5.66964,2.64583 0.2474,0.24741 2.75565,0.86577 3.40179,1.51191 0.18898,0.18898 0.94494,-0.18899 1.13392,0 0.20625,0.20625 4.4265,1.24314 4.53572,1.13392 0.36686,-0.36686 0.45192,-1.96382 0.75595,-2.26785 2.14658,-2.14659 2.26786,-16.35086 2.26786,-21.16667 0,-6.2996 0,-12.599204 0,-18.898808 0,-0.535972 0.33436,-3.067426 0,-3.401785 -1.44282,-1.442821 0.61587,-5.571821 -0.37798,-7.559524 -1.6238,-3.247605 -1.13393,-15.763857 -1.13393,-21.166667 0,-3.04628 -0.71485,-14.404197 0.75596,-15.874999 0.50396,-0.503968 -0.50397,-2.519842 0,-3.02381 1.29316,-1.293164 -0.36019,-2.250069 -1.13393,-3.023809 -2.286,-2.285997 -10.10782,-1.13393 -13.98512,-1.13393 -2.18954,0 -11.07393,-0.05631 -12.47322,-0.755951 -1.22415,-0.612077 -12.46411,0 -14.74107,0 -11.46528,0 -22.93055,0 -34.39583,0 -0.77145,0 -1.45925,0.351652 -2.26786,0.755951 -0.87692,0.438462 -3.50411,-0.275651 -4.15774,0.377979 -0.49471,0.494718 -0.77524,0.0097 -1.5119,0.377975 -1.57305,0.786522 0.40407,-0.02609 -0.37798,0.755952 -0.49951,0.499512 -6.4139,1.042358 -7.55952,0.755952 z"
       id="path5998"
       inkscape:connector-curvature="0" />
    <path
       style="fill:#fffff6;fill-opacity:0.47058824;stroke:none;stroke-width:0.26458332px;stroke-linecap:butt;stroke-linejoin:miter;stroke-opacity:1"
       d="m 153.83631,35.440477 c 1.94098,0.31134 0.0974,2.365274 0.75595,3.023809 0.80646,0.806455 3.09763,1.207746 4.15774,2.267857 0.94494,0.944938 2.07887,1.700893 3.02381,2.645834 0.19282,0.19282 4.47785,1.07606 4.53571,1.133927 1.78765,1.787652 4.91204,3.022161 6.4256,4.535715 0.32565,0.325649 1.47853,0.172299 1.88988,0.377976 1.19027,0.595135 1.2519,1.948868 2.64583,2.645833 0.22538,0.112691 0.57777,-0.178181 0.75595,0 1.41353,1.413529 4.53572,3.920876 4.53572,5.669643 0,0.792501 0.73913,5.258022 1.13393,6.047618 0.56653,1.133075 0.37797,15.497881 0.37797,18.142857 0,0.541388 0.34457,3.057221 0,3.401785 -0.0481,0.04815 -2.31901,5.618488 -1.88988,6.047621 1.55234,1.552334 2.2398,3.37372 3.77976,4.913691 0.77547,0.775467 0.97715,3.244998 1.88988,4.157737 0.34856,0.34855 0.21321,2.15151 0.37798,2.64583 0.24407,0.73221 1.66432,2.79825 1.88988,3.02381 0.50397,0.50397 0.25199,1.76389 0.75595,2.26786 0.31498,0.31498 0.81895,0.44097 1.13393,0.75595 0.17818,0.17818 -0.17818,0.57777 0,0.75595 1.53503,1.53503 5.76862,1.61088 7.18155,3.02381 0.18899,0.18899 0.94494,-0.18899 1.13393,0 0.61488,0.61489 2.68593,1.13393 3.77976,1.13393 0.004,0 1.07362,0.31767 1.13393,0.37798 0.0891,0.0891 0,0.50397 0,0.37798 0,-2.94149 0.26471,-5.8211 1.5119,-8.31548 0.64017,-1.28033 0.01,-4.17681 0.75595,-5.66965 0.52924,-1.058466 0.13578,-11.823679 -0.37797,-12.851186 -0.95562,-1.911231 0.68224,-5.134821 0,-7.181545 -0.48644,-1.45932 -0.10896,-9.558362 -0.37798,-9.827382 -1.09243,-1.09243 -0.37797,-6.36865 -0.37797,-8.315476 0,-3.374742 0.74772,-14.749303 -0.75595,-16.252975 -0.0714,-0.07145 -0.2707,-6.696292 -0.75596,-7.181549 -0.18899,-0.188989 -0.56696,-0.188989 -0.75595,-0.377975 -0.18899,-0.18899 0.18899,-0.944941 0,-1.13393 -0.31498,-0.314979 -0.81895,-0.440971 -1.13393,-0.755952 -0.12599,-0.125992 -0.25198,-1.007936 -0.37797,-1.133928 -1.13155,-1.131548 -14.8996,-0.755954 -17.76488,-0.755954 -1.22153,0 -10.73256,-0.149217 -10.96131,-0.377976 -0.74998,-0.749969 -12.9248,-1.060317 -13.60715,-0.377975 -0.25446,0.25446 -0.19936,0.477657 -0.75595,0.755951 -1.24485,0.622427 -4.23864,0.02021 -5.66964,0.377979 z"
       id="path6002"
       inkscape:connector-curvature="0" />
    <path
       style="fill:#ffffff;fill-opacity:0.47058824;stroke:none;stroke-width:0.26458332px;stroke-linecap:butt;stroke-linejoin:miter;stroke-opacity:1"
       d="m 171.22321,37.708332 c 1.47863,5.015494 6.2079,7.719798 9.44941,10.961311 0.24779,0.247793 1.32253,0.188608 1.5119,0.377976 0.7974,0.797396 1.97,2.347973 3.02381,3.401785 0.45187,0.451869 1.81599,1.060037 2.26786,1.511906 0.75993,0.759936 1.89544,7.948625 2.64583,9.449403 0.25199,0.503968 -0.25198,1.385914 0,1.889882 0.565,1.129993 3.02019,6.043996 3.40179,6.425594 0.25198,0.251983 -0.25199,1.259922 0,1.511905 0.85797,0.85797 1.16069,3.428553 1.88988,4.157737 0.59218,0.592182 -0.59218,7.723296 0,8.315478 0.78381,0.783805 1.20084,2.712747 1.5119,3.023809 0.58402,0.584015 1.06508,1.065078 1.51191,1.511904 0.17818,0.178181 -0.17818,0.577773 0,0.755954 0.17818,0.178178 0.57777,-0.178181 0.75595,0 0.0835,0.08346 0.90002,2.033953 1.13393,2.267855 0.0226,0.02259 3.16861,1.367099 3.77976,0.755954 0.56696,-0.566965 -0.56697,-2.834822 0,-3.401787 0.87423,-0.874226 0.75595,-3.210579 0.75595,-4.913689 0,-2.182796 -0.57722,-6.226352 0.75596,-7.559524 0.38844,-0.388445 0,-2.686671 0,-3.401787 0,-3.805121 0.93639,-17.781971 -0.37798,-20.410712 -0.53821,-1.076421 -0.0654,-3.663466 -0.37798,-4.913691 -0.38539,-1.54155 0.38539,-3.372141 0,-4.913691 -0.62103,-2.484138 -1.37257,-8.176143 -2.64583,-9.449406 -0.71398,-0.713975 -6.19953,0.151908 -6.4256,0.377979 -0.30994,0.309941 -2.49709,0.114615 -3.0238,0.377975 -2.4242,1.212099 -7.03374,-0.640873 -9.07143,0.377976 -0.80476,0.402379 -4.12731,0.347544 -4.53572,0.755952 -0.964,0.963999 -2.21704,1.511906 -4.15774,1.511906 -1.58205,0 -2.25701,0.0054 -3.77976,-0.755954 z"
       id="path6000"
       inkscape:connector-curvature="0" />
    <path
       style="fill:#000000;fill-opacity:0.27974279;stroke:none;stroke-width:0.26499999;stroke-linecap:butt;stroke-linejoin:miter;stroke-miterlimit:4;stroke-dasharray:none;stroke-opacity:1"
       d="m 152.96169,147.66315 c -0.0685,-0.10705 0.18375,-0.24499 0.18375,-0.33409 0,-0.12599 -0.21093,-0.15458 -0.26727,-0.26727 -0.33645,-0.67288 0.51558,-2.69165 0,-3.20723 -0.17499,-0.17499 -0.61765,-0.16621 -0.80181,-0.53454 -0.59722,-1.19445 -0.2214,-2.09228 -1.06908,-2.93997 -0.27548,-0.27547 0.008,-1.5954 -0.26727,-1.87088 -0.17818,-0.17818 -0.62363,-0.0891 -0.80181,-0.26727 -0.17818,-0.17818 -0.0891,-0.62363 -0.26727,-0.80181 -0.0891,-0.0891 -0.71271,-0.17818 -0.8018,-0.26727 -0.83447,-0.83447 -1.39999,-1.13271 -2.40543,-2.13816 -0.17856,-0.17856 -0.35598,0.17856 -0.53454,0 -0.28478,-0.28478 -2.6602,-2.91497 -2.93996,-3.4745 -0.081,-0.16198 -0.15528,-0.68981 -0.26727,-0.80181 -0.126,-0.12599 -0.40855,0.12599 -0.53454,0 -0.29897,-0.29896 -0.88533,-0.35078 -1.06908,-0.53454 -0.12599,-0.12599 0.12599,-0.40854 0,-0.53454 -0.17818,-0.17817 -0.8909,0.17818 -1.06908,0 -0.74937,-0.74937 -1.79075,-0.72167 -2.67269,-1.60361 -0.44071,-0.44071 -1.01801,-0.2162 -1.33635,-0.53454 -0.80514,-0.80513 -2.36272,-1.29364 -3.20724,-2.13816 -0.25528,-0.25528 -1.2983,-0.22922 -1.60361,-0.53454 -0.0891,-0.0891 -0.17818,-0.71271 -0.26727,-0.80181 -0.20127,-0.20126 -0.95608,-0.42153 -1.06908,-0.53454 -0.12599,-0.12599 0.12599,-0.40854 0,-0.53453 -0.17407,-0.17407 -0.84794,-0.20284 -1.06908,-0.53454 -0.0988,-0.14826 0.0797,-0.37517 0,-0.53454 -0.21478,-0.42956 -1.17374,-0.90647 -1.60362,-1.33635 -0.47334,-0.47335 -0.55198,-1.62106 -1.06907,-2.13816 -0.94626,-0.94625 0.57777,1.4012 -0.53454,-0.26727 -0.43916,-0.65873 -0.49654,-2.10015 -0.80181,-2.40542 -0.95562,-0.95562 -3.17866,-1.84231 -4.27631,-2.93997 -0.126,-0.12599 0.12599,-0.40854 0,-0.53453 -0.13364,-0.13364 -0.40091,-0.13364 -0.53454,-0.26728 -0.7277,-0.72769 0.70858,-5.43861 0,-6.14719 -0.12355,-0.12355 -0.64044,0.0807 -0.80181,0 -0.3704,-0.1852 -0.65319,-0.65319 -0.80181,-0.80181 -0.0841,-0.0841 -4.47125,-1.30018 -5.07812,-1.60362 -0.79569,-0.39785 -3.93033,0.34598 -4.54358,-0.26727 -0.43011,-0.43011 -1.37752,-0.5757 -1.87089,-1.06908 -0.28601,-0.28601 -1.031,-1.3173 -1.60362,-1.60362 -0.15937,-0.0797 -0.40854,0.126 -0.53454,0 -0.57092,-0.570916 -0.78978,-1.196695 -1.60361,-1.603611 -0.21606,-0.108027 -1.81626,-0.479906 -1.87089,-0.53454 -0.12599,-0.125992 0.12599,-0.408546 0,-0.534538 -0.31672,-0.316722 -1.821436,-0.485087 -2.138158,-0.801809 -0.222723,-0.222724 -0.311814,-0.579083 -0.534537,-0.801809 -0.125992,-0.125992 -0.408549,0.125992 -0.534541,0 -0.206647,-0.206648 -0.366831,-0.901372 -0.534537,-1.069078 -0.178181,-0.178179 -0.623629,-0.08909 -0.80181,-0.267269 -0.356359,-0.35636 -0.178178,-1.247257 -0.534537,-1.603616 l -1.603619,-1.603618 c -0.125992,-0.125992 -0.408545,0.125992 -0.534537,0 -0.125992,-0.125992 0.125992,-0.408546 0,-0.534538 -0.183756,-0.183756 -0.770115,-0.235577 -1.069078,-0.53454 -0.635358,-0.635358 -7.080094,0.60263 -8.285356,0 -0.630031,-0.315016 -10.505088,-1.295559 -10.958052,-1.069079 -0.84691,0.423456 -1.653008,1.38574 -2.405425,2.138157 -0.175218,0.175217 -0.133368,0.935175 -0.267269,1.069078 -0.125992,0.125992 -0.408548,-0.125992 -0.53454,0 -0.400905,0.400904 -0.668174,0.935442 -1.069078,1.336347 -0.125992,0.125991 -0.408546,-0.125992 -0.534538,0 -0.781439,0.781438 -1.929627,1.662358 -2.939965,2.672696 -0.880684,0.880684 -4.31179,0.837287 -5.34539,1.870887 -0.203272,0.203269 -0.411009,1.74736 -0.534541,1.87088 l -2.138156,2.13816 c -0.178178,0.17818 -0.08909,0.62363 -0.267269,0.80181 -0.63714,0.63714 0.550265,1.58789 0,2.13816 -0.303217,0.30321 -1.857843,0.28031 -2.138156,0 -0.356359,-0.35636 -1.247259,-0.17818 -1.603618,-0.53454 -0.223589,-0.22359 -0.549143,-0.81642 -0.801807,-1.06908 -0.11421,-0.11421 -0.536913,-3.74415 -0.801809,-4.00904 -0.394589,-0.394592 -1.069078,-0.84827 -1.069078,-1.603621 0,-0.425601 0.270862,-2.401832 0,-2.672694 -0.267269,-0.267269 -1.069078,0 -1.336347,-0.267269 -1.224865,-1.224865 -3.873399,-1.467974 -5.078121,-2.672696 -0.267269,-0.267269 -1.069078,0 -1.33635,-0.267269 -0.378537,-0.37854 -1.78217,0.178554 -1.870884,0.267269 -0.256948,0.256947 -1.260579,-0.07577 -1.603619,0.267268 -0.315955,0.315955 -0.388847,0.923388 -0.801809,1.33635 -0.668173,0.668173 -1.46998,1.202711 -2.138156,1.870885 -0.125992,0.125992 0.125992,0.408548 0,0.53454 -0.202351,0.202351 -1.231866,0.16279 -1.603616,0.534538 -0.751028,0.75103 -3.097887,-0.376616 -3.741774,0.267271 -0.210889,0.210889 -9.242688,1.180822 -9.354433,1.069078 -0.841905,-0.841907 -2.33403,-1.03338 -3.474504,-1.603618 -1.027274,-0.513636 -2.473772,0.198924 -3.207234,-0.534538 -0.435535,-0.435536 -3.84162,0.373666 -4.42961,-5e-6 l 10e-7,-58.738412 H 67.35192 c 0.601218,0.532744 0.53454,0.235593 0.53454,0.740928 0,0.336815 -0.246256,2.159172 0,2.405428 0.534538,0.534538 2.672694,-0.53454 3.207234,0 0.489993,0.489992 -0.222726,2.182701 0.267269,2.672694 0.139137,0.139136 3.705691,0.516498 4.276312,0.801809 0.439198,0.219599 1.154343,0.619805 1.336347,0.801809 0.185179,0.185179 1.15117,0.08209 1.33635,0.267269 0.222723,0.222724 0.311814,0.579083 0.534537,0.801809 0.133636,0.133633 0.668174,-0.133636 0.80181,0 0.222723,0.222724 0.311814,0.579083 0.534537,0.801809 0.279829,0.279826 1.224204,0.155123 1.603619,0.534538 0.295732,0.295733 0.534537,1.679586 0.534537,2.405425 0,0.784905 -1.637442,1.370174 -2.138156,1.870887 -0.267269,0.267269 -1.069078,0 -1.336347,0.267269 -0.125992,0.125992 0.125992,0.408549 0,0.53454 -0.223588,0.223589 -0.816411,0.549143 -1.069078,0.80181 -0.668152,0.668152 0.400648,3.073855 0,3.474503 -1.306483,1.306483 -1.53566,4.076999 0,5.612659 0.133636,0.133636 -0.133635,0.668173 0,0.801809 0.311814,0.311814 0.489995,0.757264 0.80181,1.069078 0.149981,0.149984 0.096,2.480691 0,2.672696 -0.04649,0.09299 -0.43945,0.43945 -0.534541,0.534538 -0.219551,0.219554 -0.801806,4.481859 -0.801806,5.078122 0,1.022297 0.267269,2.145381 0.267269,3.474503 0,0.11799 -0.631886,0.971732 -0.267269,1.336349 0.327691,0.327692 1.062167,0.263813 1.603615,0.534538 1.277403,0.638701 1.572885,1.147924 2.939966,1.603618 0.388696,0.129564 0.974674,-0.180837 1.336347,0 0.409088,0.204544 0.604096,0.336825 0.801809,0.534538 0.356359,0.356359 1.781797,-0.356359 2.138156,0 0.350515,0.350515 2.250752,0.647136 2.405425,0.801809 0.17993,0.17993 0.14097,0.337754 0.53454,0.534538 0.159369,0.07968 0.408546,-0.125992 0.534538,0 0.347123,0.347123 1.236678,0.969409 1.603618,1.336349 0.133903,0.133901 0.893861,0.09205 1.069078,0.267269 0.637818,0.637818 0.690261,0.994712 1.603616,1.603616 0.253984,0.169323 1.132208,0.06313 1.33635,0.267271 0.287927,0.287928 0.0319,0.331068 0.267269,0.801807 0.07968,0.159369 0.408545,-0.125992 0.534537,0 0.220268,0.220268 1.456759,1.309902 1.603619,1.603618 0.611079,1.222158 0.93364,2.537257 1.870887,3.474503 0.829356,0.829358 1.973706,1.973707 2.672696,2.672697 0.12599,0.125992 0.40855,-0.125992 0.53454,0 0.113,0.113003 0.33328,0.867815 0.53454,1.069078 0.0891,0.08909 0.71271,0.178178 0.8018,0.267269 0.17522,0.175217 0.40064,0.667906 0.53455,0.801809 0.37059,0.370599 1.25787,0.45607 1.60361,0.801809 0.54263,0.542631 0.9614,1.228667 1.60362,1.870885 0.13363,0.133635 0.66817,-0.133633 0.80181,0 0.52634,0.526343 1.41013,0.875593 1.87088,1.336349 0.12355,0.123547 0.64044,-0.08069 0.80181,0 0.6662,0.333102 1.68616,0.575812 2.13816,0.801802 0.92299,0.4615 7.30634,-0.44447 8.01809,0.26728 0.6496,0.6496 1.0013,2.07038 1.60361,2.67269 0.43863,0.43863 -0.4779,4.06569 0.26727,4.81085 0.17825,0.17825 0.35629,-0.17824 0.53454,0 0.0891,0.0891 0.17818,0.71272 0.26727,0.80181 0.89211,0.89211 2.27315,2.00588 2.93996,2.6727 0.22273,0.22272 0.0446,0.84635 0.26727,1.06907 0.13391,0.13391 0.62659,0.35933 0.80181,0.53454 0.24965,0.24965 0.28489,1.0867 0.53454,1.33635 0.16044,0.16043 0.59125,0.21869 0.80181,0.53454 0.15627,0.23441 0.0681,0.6026 0.26727,0.80181 0.35636,0.35636 0.25646,-0.56697 0.53454,0.26727 0.15864,0.47593 0.36853,1.17034 0.80181,1.60362 0.12599,0.12599 0.40854,-0.126 0.53454,0 0.51687,0.51687 0.79987,1.60232 1.60361,2.13815 1.43207,0.95471 2.57283,1.50375 3.74178,2.6727 0.12715,0.12715 2.38751,0.78389 2.40542,0.8018 l 1.33635,1.33635 c 0.18899,0.18899 0.56276,-0.11952 0.80181,0 0.31887,0.15944 1.05382,1.06145 1.60362,1.33635 0.15936,0.0797 0.40854,-0.12599 0.53454,0 0.1642,0.1642 0.17657,0.62282 0.53453,0.80181 0.31151,0.15575 1.71353,0.64445 1.87089,0.80181 1.22351,1.22351 2.74895,2.74894 4.00904,4.00904 0.17818,0.17818 0.0891,0.62363 0.26727,0.80181 0.37445,0.37444 1.29375,0.7166 1.60362,1.33635 1.13823,2.27645 2.59836,5.00378 4.27631,6.68174 0.13364,0.13363 -0.13363,0.66817 0,0.8018 0.5538,0.5538 1.369,1.63627 1.87089,2.13816 0.0645,0.0645 0.37667,1.44575 0.53454,1.60362 0.57671,0.57671 1.65459,1.27787 1.30294,1.98781 1.95261,0.55602 2.39914,0.91246 3.24064,1.75396 0.13364,0.13364 -0.13363,0.66818 0,0.80181 0.31182,0.31181 0.75727,0.48999 1.06908,0.80181 0.58748,0.58748 -0.24553,2.69444 0.26727,3.20723 0.57462,0.57462 1.71314,0.3768 2.40543,1.06908 0.13936,0.13937 0.18265,2.85536 0.53453,3.20724 0.7056,0.70559 1.32943,1.72686 2.13816,2.93996 0.15627,0.23441 0.0681,0.6026 0.26727,0.80181 0.17499,0.17499 0.61765,0.16621 0.80181,0.53454 0.15433,0.30867 0.33309,1.40217 0.53454,1.60362 0.22272,0.22272 0.57908,0.31181 0.80181,0.53453 0.22272,0.22273 0.0445,0.84636 0.26727,1.06908 0.12599,0.12599 0.40854,-0.12599 0.53453,0 0.31528,0.31528 0.68117,1.48298 0.80181,1.60362 0.126,0.12599 0.40855,-0.12599 0.53454,0 0.35636,0.35636 0.71272,0.71272 1.06908,1.06908 0.16658,0.16658 1.7162,0.11258 2.13816,0.53454 0.22272,0.22272 0.0445,0.84635 0.26727,1.06907 0.33553,0.33554 0.77202,0.74225 1.06907,1.33635 0.0797,0.15937 -0.12599,0.40855 0,0.53454 0.13391,0.1339 0.6266,0.35932 0.80181,0.53454 0.2987,0.2987 0.23584,1.57219 0.53454,1.87089 1.36386,1.36385 2.87271,2.8727 4.00905,4.00904 0.12599,0.12599 -0.126,0.40855 0,0.53454 0.26726,0.26727 0.53453,0.53454 0.8018,0.80181 0.21087,0.21087 2.96921,1.08369 3.47451,1.33635 0.27101,0.1355 0.61291,0.88018 0.80181,1.06907 0.12599,0.126 0.40854,-0.12599 0.53454,0 0.83786,0.83786 1.71915,1.45189 2.67269,2.40543 0.12599,0.12599 -0.12599,0.40855 0,0.53454 0.22272,0.22272 0.57908,0.31181 0.80181,0.53454 0.13363,0.13363 -0.13364,0.66817 0,0.80181 0.7876,0.78759 0.82889,1.65777 1.33635,2.67269 0.55615,1.11231 -0.0185,-0.28572 0.53454,0.26727 0.12599,0.12599 -0.126,0.40855 0,0.53454 0.52099,0.521 0.87895,1.14622 1.60361,1.87089 0.0891,0.0891 0.71272,0.17818 0.80181,0.26727 0.26727,0.26727 0.26727,0.8018 0.53454,1.06907 0.12599,0.126 0.40855,-0.12599 0.53454,0 0.52634,0.52635 1.14286,1.14287 1.60362,1.60362 0.12599,0.12599 -0.126,0.40855 0,0.53454 0.12599,0.12599 0.40854,-0.12599 0.53454,0 0.52458,0.52458 0.0974,1.96831 0.53453,2.40543 0.26727,0.26727 1.06908,0 1.33635,0.26727 0.12599,0.12599 -0.12599,0.40854 0,0.53453 0.17818,0.17818 0.62363,0.0891 0.80181,0.26727 0.42311,0.42311 -0.28696,0.2279 0,0.80181 0.0261,0.0521 0.47655,0.20928 0.53454,0.26727 0.27086,0.27087 0,2.24709 0,2.6727 0,0.29687 0.18899,1.6819 0,1.87088 -0.46677,0.46677 -1.95984,-1.4253 -2.13816,-1.60361 -0.6003,-0.60031 -1.32683,-1.32684 -1.87088,-1.87089 -0.12599,-0.12599 0.12599,-0.40855 0,-0.53454 -0.17818,-0.17818 -0.62363,-0.0891 -0.80181,-0.26727 -0.13364,-0.13363 0.13363,-0.66817 0,-0.80181 -0.0201,-0.0201 -2.36977,-2.86865 -2.40543,-2.93996 -0.30621,-0.61243 -0.25587,-1.05768 -0.80181,-1.60362 -0.19477,-0.19478 -0.80546,-0.27092 -1.06907,-0.53454 -0.0891,-0.0891 -0.17818,-0.71272 -0.26727,-0.80181 -0.79015,-0.79015 -0.96668,-2.03575 -1.87089,-2.93996 -0.13363,-0.13364 0.13363,-0.66817 0,-0.80181 -0.84635,-0.84635 -1.2918,-2.09361 -2.13816,-2.93996 -0.12599,-0.126 -0.40854,0.12599 -0.53454,0 -0.77088,-0.77089 -2.51872,-1.18238 -2.93996,-1.60362 -0.22272,-0.22273 -0.31181,-0.57909 -0.53454,-0.80181 -0.12599,-0.12599 -0.40855,0.12599 -0.53454,0 -0.17818,-0.17818 -0.0891,-0.62363 -0.26727,-0.80181 -0.22272,-0.22272 -0.84635,-0.0445 -1.06908,-0.26727 -0.12599,-0.12599 0.126,-0.40855 0,-0.53454 -0.13363,-0.13363 -0.66817,0.13364 -0.8018,0 -0.29897,-0.29896 -0.88533,-0.35078 -1.06908,-0.53454 -0.12599,-0.12599 0.12599,-0.40854 0,-0.53454 -0.22273,-0.22272 -0.84636,-0.0445 -1.06908,-0.26726 -0.31182,-0.31182 -0.22273,-1.02454 -0.53454,-1.33635 -0.12599,-0.12599 -0.40855,0.12599 -0.53454,0 -0.12599,-0.12599 0.12599,-0.40855 0,-0.53454 -0.59258,-0.59258 -1.12454,-2.19362 -1.87089,-2.93997 -0.17818,-0.17818 0.17818,-0.89089 0,-1.06907 -0.12599,-0.126 -0.40854,0.12599 -0.53453,0 -0.126,-0.126 0.12599,-0.40855 0,-0.53454 -0.32691,-0.32691 -1.30989,-2.13816 -1.60362,-2.13816 -0.90869,0 -3.83632,-1.4309 -4.27631,-1.87089 -0.13364,-0.13363 -0.66818,0.13364 -0.80181,0 -0.12599,-0.12599 0.12599,-0.40854 0,-0.53454 -0.22273,-0.22272 -0.84636,-0.0445 -1.06908,-0.26727 -0.17818,-0.17817 -0.0891,-0.62362 -0.26727,-0.8018 -0.113,-0.11301 -0.86782,-0.33328 -1.06908,-0.53454 -0.12599,-0.12599 0.12599,-0.40855 0,-0.53454 -0.1339,-0.1339 -0.89386,-0.0921 -1.06908,-0.26727 -0.84635,-0.84635 -2.36088,-1.02453 -3.20723,-1.87089 -0.17818,-0.17818 -0.62363,-0.0891 -0.80181,-0.26727 -0.31181,-0.31181 -0.48999,-0.75726 -0.80181,-1.06908 -0.113,-0.113 -0.86781,-0.33327 -1.06908,-0.53453 -0.13363,-0.13364 0.13364,-0.66818 0,-0.80181 -0.17818,-0.17818 -0.62363,-0.0891 -0.8018,-0.26727 -0.126,-0.12599 0.12599,-0.40855 0,-0.53454 -0.14087,-0.14087 -0.46649,-0.53454 -0.26727,-0.53454 0.22862,0 -0.28807,1.58282 0.26727,2.13816 2.63749,2.63749 1.87088,7.74804 1.87088,12.29439 0,1.24519 0.43111,1.76746 1.06908,2.40543 0.24831,0.24831 0.14107,1.47742 0.53454,1.87089 0.43034,0.43033 -0.40819,4.79628 0,5.61266 0.5712,1.1424 1.23581,1.77035 1.87089,2.40542 0.45292,0.45293 0.0831,3.29035 0.8018,4.00904 0.31287,0.31287 -0.10535,5.13469 0.26727,5.87993 0.59264,1.18527 0.0287,6.97771 0.53454,7.48355 1.15407,1.15407 -0.26727,9.38609 -0.26727,10.95805 0,0.53746 0.43089,2.24181 0.26727,2.40543 -0.22272,0.22272 -0.84635,0.0445 -1.06908,0.26727 -0.17521,0.17521 -0.40063,0.6679 -0.53453,0.80181 -0.24694,0.24693 0.26727,5.74434 0.26727,6.41446 -1e-5,1.69271 0,3.38542 0,5.07813 0,0.27513 0.46641,0.33539 0.26726,0.53453 -0.063,0.063 -0.26726,0.0891 -0.26726,0 0,-0.0891 0.35635,0 0.26726,0 -0.72242,0 -1.25586,0.0805 -1.60361,-0.26727 -0.17818,-0.17817 -0.8909,0.17818 -1.06908,0 -0.12599,-0.12599 0.12599,-0.40854 0,-0.53453 -0.55298,-0.55299 -0.17756,0.0448 -0.80181,-0.26727 -0.12553,-0.0628 0,-1.96766 0,-2.13816 0,-1.63726 -0.30313,-7.71495 -0.26727,-7.75082 0.31182,-0.31181 0.49,-0.75726 0.80181,-1.06907 0.62619,-0.62619 -0.41219,-2.28308 -0.53454,-2.40543 -0.5209,-0.5209 0.80181,-5.66597 0.80181,-6.41447 0,-0.20927 -0.13336,-1.20299 0,-1.33635 0.4009,-0.4009 0.4009,-1.20271 0.80181,-1.60361 0.72424,-0.72424 -0.96327,-6.8432 -1.06908,-6.94901 -0.21637,-0.21637 0,-1.79822 0,-2.13816 0,-0.7839 0.0875,-7.93056 0,-8.01808 -0.42253,-0.42253 -0.23666,-1.84028 -0.53454,-2.13816 -0.65809,-0.65809 -1.26783,-2.06964 -1.87089,-2.67269 -0.26727,-0.26727 0,-1.06908 -0.26727,-1.33635 -0.23392,-0.23393 0.16051,-3.84854 -0.26726,-4.27631 -1.47713,-1.47713 -1.5953,-3.72513 -2.6727,-5.87993 -0.70471,-1.40942 0.44759,-3.02692 -0.53454,-4.00905 -0.19571,-0.19571 -0.11502,-1.45136 -0.53454,-1.87088 -0.26727,-0.26727 0,-1.06908 -0.26727,-1.33635 -0.38066,-0.38066 0.38066,-4.96473 0,-5.34539 -1.02078,-1.02078 -1.26213,-3.59335 -2.13815,-5.34539 -0.14021,-0.28041 0.21332,-1.12303 0,-1.33635 -0.13364,-0.13364 -0.40091,-0.13364 -0.53454,-0.26727 -0.21333,-0.21332 0.1402,-1.05594 0,-1.33635 -0.20418,-0.40836 -0.50262,-2.3735 -0.53454,-2.40542 -0.84541,-0.84541 -0.68643,-2.57787 -0.98556,-4.2095 z"
       id="path5964"
       inkscape:connector-curvature="0"
       sodipodi:nodetypes="cscscccccscscccccsscscccscccccscscscscscccccccccccsssssccccccssccccccsccsssscccscscsccccccssccsscccccssscsssccccssccccssscsccsccscccccccccccccssccscccccccsscsssccccsccccsssc" />
    <path
       style="opacity:1;fill:#ffffff;fill-opacity:0.47058824;stroke:none;stroke-width:1.00157475;stroke-linecap:round;stroke-linejoin:round;stroke-miterlimit:4;stroke-dasharray:none;stroke-dashoffset:0;stroke-opacity:1;paint-order:fill markers stroke"
       d="m 195.62233,866.94573 c -7.27942,-8.76622 -10.07793,-13.32104 -10.12855,-16.48511 -0.0303,-1.89323 -0.61662,-7.07878 -1.30297,-11.52345 -1.21377,-7.86016 -1.45361,-8.33862 -8.76761,-17.49062 -7.80062,-9.76091 -10.6527,-16.15701 -11.79475,-26.45102 -0.59308,-5.3458 -3.20461,-8.6292 -8.88926,-11.17616 -5.39834,-2.4187 -20.06849,-5.08557 -26.85492,-4.88195 -3.00848,0.0903 -7.95551,-0.57813 -10.9934,-1.48533 -3.03789,-0.90719 -8.35087,-1.64945 -11.80661,-1.64945 -11.351601,0 -18.913362,-2.44402 -26.64265,-8.61109 -8.545748,-6.81851 -13.301254,-8.67654 -24.212594,-9.46012 -4.722463,-0.33914 -9.154507,-0.98437 -9.848987,-1.43385 -1.002204,-0.64864 -1.263039,-37.22092 -1.26438,-177.28177 l -0.0017,-176.46454 17.834526,0.52525 c 16.296164,0.47993 17.930058,0.69439 18.94205,2.48625 0.609137,1.07856 2.318249,3.22431 3.798026,4.76835 1.479775,1.54403 3.108646,4.06176 3.619713,5.59496 0.721234,2.1637 1.596668,2.81024 3.911312,2.88865 1.640157,0.0556 3.957903,0.62324 5.150549,1.26153 1.192646,0.63828 7.925855,1.65253 14.962685,2.25389 12.25766,1.04751 12.98399,1.2382 17.31854,4.54684 4.05914,3.09841 5.18758,3.45348 10.97552,3.45348 4.06928,0 8.34371,0.74594 11.57678,2.0203 8.73067,3.44131 32.13229,2.58105 40.73322,-1.49737 2.22216,-1.05372 6.46883,-1.52264 13.81502,-1.52547 5.83363,-0.002 30.8349,-0.0524 55.55839,-0.11142 l 44.95179,-0.10733 4.12936,-2.41981 c 2.98235,-1.74767 5.64794,-2.41915 9.59645,-2.41741 5.37589,0.002 5.53859,0.0908 9.75377,5.3033 2.35766,2.91549 4.28958,6.21676 4.29315,7.33616 0.004,1.11939 0.9156,3.73151 2.02677,5.80471 1.11116,2.0732 2.0203,4.90752 2.0203,6.2985 0,1.39097 0.51312,2.52904 1.14026,2.52904 0.62715,0 2.87423,1.56653 4.99351,3.48118 2.11929,1.91465 5.67891,3.97278 7.91026,4.57362 3.76149,1.01286 4.39071,1.73426 8.63806,9.90334 2.51957,4.846 4.58351,9.62541 4.58654,10.62092 0.004,1.25265 2.05678,2.73036 6.66697,4.79882 3.66382,1.64384 7.07874,2.73093 7.58871,2.41575 0.50997,-0.31518 3.35706,1.50283 6.32687,4.04002 2.96981,2.53718 6.04672,4.61306 6.83759,4.61306 2.53441,0 12.74449,11.33781 13.81701,15.34314 1.00579,3.75612 6.1111,11.39195 7.01338,10.48967 0.26738,-0.26737 2.52951,3.47044 5.02696,8.30627 3.04438,5.89486 6.77994,11.12267 11.33532,15.86347 l 6.79452,7.07107 0.41203,25.75889 c 0.41103,25.69585 0.30465,45.40083 -0.28618,53.00954 -0.25031,3.22345 0.0509,4.08892 1.52434,4.38041 1.00995,0.1998 6.59959,3.96055 12.42141,8.35723 7.27152,5.4915 11.45674,7.99396 13.36944,7.99396 1.53137,0 6.59675,1.84365 11.2564,4.097 6.99713,3.38373 9.12832,3.98614 12.24146,3.46017 2.54493,-0.42996 4.5335,-0.15019 6.12169,0.86126 2.29843,1.46376 8.70456,2.94042 18.17836,4.19025 3.50218,0.46202 5.13825,1.26886 6.36291,3.13792 0.90669,1.3838 3.1211,3.2182 4.92091,4.07648 1.79982,0.85827 4.38834,3.22679 5.75227,5.26338 1.36391,2.03659 5.96893,7.3813 10.23334,11.87714 5.30901,5.59714 8.09471,9.41882 8.83583,12.12183 0.59529,2.17117 1.97068,5.28401 3.05641,6.91743 1.62853,2.45003 1.87215,4.0612 1.39182,9.20492 -0.50285,5.38474 -0.1227,7.52832 2.78746,15.71796 2.06279,5.80502 4.41216,10.47215 6.05752,12.03354 5.94316,5.63981 7.14466,9.94228 8.15267,29.19369 0.51126,9.76423 0.64429,26.84453 0.29561,37.9562 l -0.63395,20.20306 -2.98767,3.79829 c -4.32332,5.49636 -5.90648,9.98711 -5.90648,16.75418 0,4.72506 0.40329,6.25918 1.93381,7.35605 1.06359,0.76224 2.23612,2.86325 2.60564,4.66889 l 0.67184,3.283 h -184.2086 c -175.11216,0 -184.28205,-0.0885 -185.6958,-1.79094 z"
       id="path5982"
       inkscape:connector-curvature="0"
       transform="scale(0.26458333)" />
    <path
       style="fill:#fffff9;fill-opacity:0.47058824;stroke:none;stroke-width:0.26458332px;stroke-linecap:butt;stroke-linejoin:miter;stroke-opacity:1"
       d="m 11.22532,130.49108 c 0.352304,-0.80619 2.216159,-0.078 2.672695,-0.53454 1.115156,-1.11515 7.638004,-1.71643 9.087164,-0.26727 0.222725,0.22273 0.846354,0.0446 1.069078,0.26727 0.08991,0.0899 7.041695,0 7.750816,0 0.768911,0 4.044796,-0.0357 4.276312,-0.26727 0.691846,-0.69184 2.858608,-0.45318 3.474505,-1.06907 0.169532,-0.16954 0.846553,0.11126 1.069079,0 0.147544,-0.0738 2.121995,-1.05292 2.138156,-1.06908 0.197829,-0.19783 0.154881,-0.80181 0.534537,-0.80181 0.387057,0 1.264865,-0.16938 1.603619,0 0.632738,0.31637 0.935273,0.93527 1.336347,1.33635 0.372393,0.37239 1.73297,0.93116 2.138156,1.33634 0.668173,0.66818 3.34087,-0.66817 4.009043,0 0.403487,0.40349 1.181875,0.91461 1.603616,1.33635 0.133636,0.13364 0.668176,-0.13363 0.801809,0 0.222726,0.22273 0.311814,0.57909 0.53454,0.80181 0.125992,0.12599 0.408546,-0.12599 0.534538,0 0.694936,0.69493 2.038686,1.50415 2.672696,2.13816 0.331735,0.33173 0.870977,0.0692 1.069079,0.26727 0.544049,0.54405 1.53785,1.00331 2.138156,1.60361 0.858326,0.85833 2.453169,0.84955 3.207234,1.60362 0.133633,0.13364 0.668173,-0.13363 0.801809,0 0.460931,0.46093 2.345859,0.74224 2.672694,1.06908 0.110148,0.11015 0.726794,0.68771 1.069078,0.80181 0.564449,0.18815 4.097173,0.62267 4.276312,0.80181 0.756894,0.75689 2.231681,1.18934 3.474506,1.60361 0.387276,0.1291 1.330819,-0.006 1.603615,0.26727 0.553474,0.55347 1.077008,1.61155 1.603619,2.13816 0.19921,0.19921 0.06806,0.6026 0.267269,0.80181 0.224083,0.22408 1.428824,1.25403 1.603615,1.60361 0.171069,0.34214 0.223584,1.29267 0.534541,1.60362 1.337926,1.33793 3.083068,2.69164 4.009043,4.54358 0.134416,0.26884 0.183944,3.02329 0,3.20724 -0.876707,0.8767 -0.861811,1.93089 -1.336349,2.40542 -0.08871,0.0887 -0.08871,2.04944 0,2.13816 0.311816,0.31181 0.489995,0.75726 0.801809,1.06908 0.09112,0.0911 0.417994,4.12559 0.267269,4.27631 -0.979583,0.97958 -2.21614,3.01795 -3.474503,4.27631 -0.178179,0.17818 -0.08909,0.62363 -0.267269,0.80181 -0.623628,0.62363 0.356359,2.85088 -0.267269,3.4745 -0.133636,0.13364 -0.400905,0.13364 -0.53454,0.26728 -0.267269,0.26726 0,1.06907 -0.267269,1.33634 -0.17499,0.17499 -0.617646,0.16622 -0.801809,0.53454 -0.08934,0.17868 -0.122264,2.01589 0,2.13816 0.285988,0.28599 1.499692,0.43061 1.870887,0.80181 0.639598,0.63959 1.467726,1.46772 1.870887,1.87088 0.178245,0.17825 0.356293,-0.17824 0.534538,0 1.917721,1.91772 3.001666,3.80348 4.810852,5.61266 0.125992,0.12599 0.375169,-0.0797 0.534538,0 0.802299,0.40115 1.547929,1.04124 2.138156,1.33635 0.664813,0.33241 1.414629,-0.0945 2.138156,0.26727 1.69241,0.8462 4.084074,0.60957 5.34539,1.87089 0.2922,0.2922 1.11771,0.3159 1.33635,0.53454 0.22847,0.22847 2.81072,0.67257 2.93997,0.8018 0.27342,0.27343 0.74502,0.74504 1.06907,1.06908 0.126,0.12599 0.3655,-0.0563 0.53454,0 0.6246,0.2082 1.31907,0.51726 1.60362,0.80181 0.3269,0.3269 3.539,0.16589 4.27631,0.53454 0.39357,0.19679 0.35461,0.35461 0.53454,0.53454 0.17818,0.17818 0.8909,-0.17818 1.06908,0 0.20912,0.20912 4.42381,1.06908 4.81085,1.06908 0.89098,0 3.23946,2.15426 4.27631,2.67269 0.92591,0.46296 2.26038,1.1913 2.93997,1.87089 0.12354,0.12355 0.64043,-0.0807 0.8018,0 0.51698,0.25849 0.77702,0.77701 1.06908,1.06908 0.17522,0.17521 0.93518,0.13337 1.06908,0.26727 0.46307,0.46306 1.11018,1.11018 1.60362,1.60361 0.19115,0.19115 0.75595,1.55776 0.80181,1.60362 0.75941,0.75941 1.44053,2.24235 2.13815,2.93997 0.005,0.005 0.37496,1.55172 0.53454,1.87088 0.56375,1.1275 -0.59436,7.15646 0,7.75082 0.26727,0.26727 0.53454,0.53454 0.80181,0.80181 0.12235,0.12235 0.12235,2.81761 0,2.93996 -0.0891,0.0891 -0.71272,0.17818 -0.80181,0.26727 -0.22359,0.22359 -0.54914,0.81641 -0.80181,1.06908 -0.12599,0.12599 -0.40854,-0.12599 -0.53454,0 -0.42417,0.42418 -0.92852,1.73033 -1.33634,2.13815 -0.75727,0.75727 0.75726,3.78632 0,4.54359 -0.0891,0.0891 -0.71272,0.17818 -0.80181,0.26727 -0.35636,0.35636 -0.71272,0.71272 -1.06908,1.06908 -0.22777,0.22777 -1.71427,0.11064 -2.13816,0.53453 -0.24364,0.24365 -2.0226,0 -2.40542,0 -2.16888,0 -12.17992,0.91629 -13.36348,-0.26727 -0.39484,-0.39483 -2.60075,0.036 -3.20723,-0.26726 -0.96195,-0.48098 -5.61253,0 -6.94901,0 -0.25346,0 -1.442215,-0.16141 -1.603616,0 -0.214855,0.21485 -1.09256,0.41264 -1.33635,0.53453 -0.741497,0.37075 -5.580941,0.26727 -6.949006,0.26727 -1.514962,0 -9.493641,0.6626 -10.156242,0 -0.35636,-0.35635 -0.712719,-0.71271 -1.069079,-1.06907 -0.183755,-0.18376 -0.770114,-0.23558 -1.069078,-0.53454 -0.400904,-0.40091 -1.469982,-0.13364 -1.870887,-0.53454 -0.125992,-0.12599 0.125992,-0.40855 0,-0.53454 -0.178244,-0.17825 -0.356293,0.17825 -0.534538,0 -0.201263,-0.20126 -0.421536,-0.95608 -0.53454,-1.06908 -0.473488,-0.47349 -1.067771,-0.8005 -1.603616,-1.33635 -0.242514,-0.24251 0.02225,-2.91771 -0.53454,-3.4745 -0.470323,-0.47033 -1.26302,-0.99575 -1.603616,-1.33635 -0.113003,-0.113 -0.333277,-0.86781 -0.53454,-1.06908 -0.125992,-0.12599 -0.408546,0.12599 -0.534538,0 -0.443066,-0.44306 -0.905634,-1.00946 -1.336349,-1.87088 -0.663247,-1.3265 -0.129077,-3.87086 -1.069078,-4.81085 -0.123548,-0.12355 0.08069,-0.64044 0,-0.80181 -0.299937,-0.59988 -0.664327,-1.46614 -1.069078,-1.87089 -0.24233,-0.24233 -0.843011,-0.34968 -1.069078,-0.80181 -0.164174,-0.32835 -0.292931,-1.36201 -0.534538,-1.60362 -0.55299,-0.55299 0.02162,0.84505 -0.534541,-0.26726 -0.0044,-0.009 -0.686929,-4.12393 -0.534537,-4.27632 0.133522,-0.13352 1.129945,-2.07729 0.534537,-2.67269 -0.938014,-0.93802 -1.363551,-1.63083 -2.405424,-2.6727 -0.125992,-0.12599 -0.408546,0.12599 -0.534538,0 -0.239866,-0.23986 -0.829215,-0.82921 -1.069078,-1.06908 -0.125995,-0.12599 -0.408549,0.126 -0.534541,0 -0.256947,-0.25694 -0.458769,-0.72604 -0.801809,-1.06907 -0.255286,-0.25529 -1.2983,-0.22923 -1.603616,-0.53454 -0.400904,-0.40091 -0.935444,-0.66818 -1.336349,-1.06908 -0.229137,-0.22914 -6.598793,0.18432 -6.681737,0.26727 -0.125992,0.12599 0.125992,0.40855 0,0.53454 -0.305316,0.30531 -1.348333,0.27925 -1.603616,0.53454 -0.133636,0.13363 -0.133636,0.4009 -0.267271,0.53454 -0.4248,0.42479 -1.714022,0.37767 -2.405425,1.06907 -0.07876,0.0788 -6.510817,0 -7.216278,0 -0.119671,0 -4.78395,-1.59016 -5.34539,-1.87088 -1.0091,-0.50455 -3.671517,0 -4.810853,0 -0.90696,0 -2.948174,0.39679 -3.741772,0 -2.19965,-1.09983 -7.654605,-0.43833 -8.819894,-1.60362 -0.311814,-0.31182 -1.291803,0.0445 -1.603617,-0.26727 -0.712719,-0.71272 -3.296324,0.44545 -4.009043,-0.26727 -0.11381,-0.11381 0,-9.40435 0,-10.42351 0,-2.70433 0.355119,-10.33566 -0.8018086,-11.49259 -0.4454491,-0.44545 0.1781796,-1.95998 -0.2672694,-2.40543 -0.7565112,-0.75651 0.722462,-7.29562 -0.5345391,-8.55262 -0.2769163,-0.27692 0,-2.46895 0,-2.93997 0,-6.0581 0,-12.11621 0,-18.17432 0,-1.35928 0.2991298,-8.58449 0.8018085,-9.08717 0.3149796,-0.31498 0.8908986,0 1.3363476,0 z"
       id="path5984"
       inkscape:connector-curvature="0" />
    <path
       style="fill:#ffffff;fill-opacity:0.47058824;stroke:none;stroke-width:0.26458332px;stroke-linecap:butt;stroke-linejoin:miter;stroke-opacity:0.39215686"
       d="m 11.759859,140.11279 c 0.622514,0.52372 2.89957,-0.57494 3.474504,0 0.442004,0.442 1.474218,0.40514 1.603617,0.53454 1.073669,1.07366 2.453226,1.10094 4.009043,2.13815 0.565355,0.3769 1.769407,0.21653 2.405425,0.53454 1.127494,0.56375 7.156458,-0.59436 7.750818,0 0.370531,0.37053 1.11964,0.26727 1.870885,0.26727 2.497952,0 6.841019,-0.37526 8.285355,1.06908 0.227772,0.22777 1.714267,0.11065 2.138156,0.53454 0.05212,0.0521 4.341231,0 4.810853,0 1.994471,0 7.478173,-0.13632 8.819893,0.53453 1.112314,0.55616 -0.285721,-0.0184 0.267269,0.53454 0.161954,0.16196 1.299033,0.38225 1.603618,0.53454 0.16137,0.0807 0.67826,-0.12354 0.80181,0 0.552989,0.55299 -0.845043,-0.0216 0.267268,0.53454 0.405149,0.20258 0.954858,0.15305 1.336347,0.53454 0.594913,0.59491 2.173502,1.67431 2.405428,2.13816 0.302641,0.60528 0.565745,1.36755 1.069078,1.87088 0.579083,0.57909 -0.579086,2.89542 0,3.47451 0.063,0.063 0.204271,-0.063 0.267269,0 0.152913,0.15291 0,1.05974 0,1.33635 0,1.34874 1.144661,4.12514 0.534537,5.34539 -0.535178,1.07036 -1.217292,1.75183 -1.870884,2.40542 -0.08909,0.0891 -0.178181,0.71272 -0.267272,0.80181 -0.530129,0.53013 -1.708001,1.27785 -2.138156,2.13816 -0.24661,0.49322 -0.596265,1.19253 -0.801806,1.60362 -0.874932,1.74986 1.214368,2.79467 -1.069078,5.07811 -0.213614,0.21362 -0.297135,0.81675 -0.80181,1.06908 -1.056539,0.52827 -2.144855,1.07578 -2.939965,1.87089 -0.191743,0.19174 -1.276913,0.37119 -1.603618,0.53454 -0.781876,0.39094 -1.919513,1.38497 -2.405425,1.87089 -0.379497,0.37949 -3.145433,0 -3.741772,0 -0.110053,0 -0.731062,0.0707 -0.801809,0 -0.715068,-0.71507 -2.737377,-0.59922 -3.474506,-1.33635 -0.627962,-0.62797 -4.308303,0.29926 -4.543581,0.53454 -0.178178,0.17818 -0.890897,-0.17818 -1.069078,0 -0.913447,0.91345 -5.674736,0.20519 -6.414468,-0.53454 -0.418719,-0.41872 -2.452455,0.22024 -2.939966,-0.26727 -0.328697,-0.3287 -1.703212,-0.36687 -1.870887,-0.53454 -0.948859,-0.94886 -3.775893,-1.06908 -5.612659,-1.06908 -1.181016,0 -9.510827,2.78357 -10.423511,1.87089 -0.199142,-0.19914 0.267269,-0.25941 0.267269,-0.53454 0,-1.24976 -0.179051,-2.14077 -0.534539,-3.20723 -0.17225,-0.51676 0.370404,-2.3023 0,-2.6727 -0.9438435,-0.94384 -0.267269,-5.84662 -0.267269,-7.48355 0,-1.1969 0.132635,-12.16176 0,-12.2944 -0.2227247,-0.22272 -0.3118146,-0.57908 -0.534539,-0.8018 -0.1041384,-0.10414 0,-0.90598 0,-1.06908 0,-1.23101 -0.5385663,-4.00099 0,-5.07812 0.3674552,-0.73491 0.378949,-1.18076 0.801808,-1.60362 0.133635,-0.13363 -0.133634,-0.66817 0,-0.80181 0.608262,-0.60826 1.025796,-1.16321 1.336348,-2.40542 z"
       id="path5990"
       inkscape:connector-curvature="0" />
    <path
       style="fill:#ffffff;fill-opacity:0.47058824;stroke:none;stroke-width:0.26458332px;stroke-linecap:butt;stroke-linejoin:miter;stroke-opacity:1"
       d="m 11.492589,152.94172 c 3.083832,0.24251 5.499658,-0.42153 7.216278,-2.13815 0.01067,-0.0107 3.352876,-0.26727 3.741773,-0.26727 3.439312,0 5.472334,1.19602 7.483548,3.20723 0.133633,0.13364 0.668173,-0.13363 0.801807,0 0.552989,0.55299 -0.845043,-0.0216 0.267271,0.53454 0.823704,0.41185 2.086446,-0.15949 2.939963,0.26727 0.845732,0.42287 3.366278,-0.64277 4.009043,0 0.222726,0.22272 0.846355,0.0445 1.069078,0.26727 0.294558,0.29456 0.883592,1.37724 1.336347,1.60362 0.847445,0.42372 1.271659,0.46984 1.870887,1.06908 0.311814,0.31181 1.291805,-0.0445 1.603619,0.26726 0.222723,0.22273 0.311814,0.57909 0.534537,0.80181 0.133636,0.13364 0.668174,-0.13363 0.80181,0 0.339354,0.33936 1.242441,0.44064 1.336346,0.53454 0.419685,0.41969 1.152838,1.42011 1.603619,1.87089 0.593286,0.59328 -0.91118,2.5148 -1.069078,2.67269 -0.009,0.009 -2.097577,0.49396 -2.405425,0.80181 -0.48092,0.48092 -3.489587,0.0151 -3.741775,0.26727 -0.983731,0.98373 -13.116216,0.80181 -16.036171,0.80181 -0.984563,0 -1.737581,0.40123 -2.138157,0.80181 -0.133361,0.13336 -1.127073,0 -1.336347,0 -1.231005,0 -4.000989,0.53857 -5.078121,0 -1.727489,-0.86375 -2.614369,-0.20895 -4.009043,-1.60362 -0.176389,-0.17639 -0.35815,0.17639 -0.534539,0 -0.26727,-0.26727 0,-1.06908 -0.26727,-1.33635 -0.140863,-0.14086 -0.46648,-0.53453 -0.267269,-0.53453 0.08909,0 0.08909,0.26726 0,0.26726 -0.182663,0 -0.520417,-1.57537 -0.534539,-1.60361 -1.1767632,-2.35353 -0.8724728,-6.87834 0.801808,-8.55263 z"
       id="path5994"
       inkscape:connector-curvature="0" />
    <path
       style="fill:#ffffff;fill-opacity:0.47058824;stroke:none;stroke-width:0.26458332px;stroke-linecap:butt;stroke-linejoin:miter;stroke-opacity:1"
       d="m 98.087914,206.39563 c -0.792855,0.2441 -6.29993,-0.38181 -6.681737,0 -0.387448,0.38745 -1.203092,0.73518 -1.870887,1.06908 -0.159369,0.0797 -0.408546,-0.126 -0.534538,0 -0.178181,0.17818 -0.08909,0.62362 -0.267269,0.8018 -0.241874,0.24188 -1.788551,2.48776 -1.336349,2.93997 0.248928,0.24893 0.267269,-0.021 0.267269,0.53454 0,0.11005 -0.07075,0.73106 0,0.80181 0.340061,0.34006 1.628595,1.11903 1.870887,1.60361 0.65146,1.30292 -1.465699,5.21604 -0.801807,5.87993 0.133901,0.13391 0.626592,0.35933 0.801807,0.53454 0.249653,0.24965 0.284887,1.0867 0.53454,1.33635 0.125992,0.12599 0.408546,-0.12599 0.534538,0 0.175218,0.17522 0.400637,0.66791 0.53454,0.80181 0.222724,0.22272 0.846352,0.0445 1.069078,0.26727 0.35636,0.35636 0.712719,0.71272 1.069078,1.06908 0.133634,0.13363 0.668174,-0.13364 0.80181,0 0.552989,0.55299 -0.845043,-0.0216 0.267268,0.53454 0.16137,0.0807 0.67826,-0.12355 0.80181,0 2.304798,2.3048 11.496038,2.40542 15.501628,2.40542 1.47665,0 7.96713,0.31823 8.55263,-0.26727 0.12599,-0.12599 -0.126,-0.40855 0,-0.53454 0.26727,-0.26727 0.53454,-0.53454 0.80181,-0.80181 0.12235,-0.12235 0.87186,-2.0681 0.53454,-2.40542 -0.126,-0.12599 -0.40855,0.12599 -0.53454,0 -0.31182,-0.31182 -0.49,-0.75727 -0.80181,-1.06908 -0.126,-0.12599 -0.40855,0.12599 -0.53454,0 -0.17818,-0.17818 -0.0891,-0.62363 -0.26727,-0.80181 -0.35944,-0.35944 -0.93675,-0.93675 -1.33635,-1.33635 -0.13363,-0.13363 -0.66817,0.13364 -0.80181,0 -0.26727,-0.26726 -1.06907,0 -1.33635,-0.26726 -0.96593,-0.96594 -1.06907,-1.24031 -1.06907,-3.20724 0,-0.76665 1.12386,-1.81611 0.80181,-2.13816 -0.77114,-0.77113 -2.1206,-1.85333 -3.20724,-2.93996 -0.60464,-0.60464 -1.7827,-0.49045 -2.40542,-0.80181 -0.0521,-0.0261 -0.20928,-0.47655 -0.26727,-0.53454 -0.13364,-0.13363 -0.66818,0.13364 -0.80181,0 -0.43196,-0.43196 -1.42198,-0.35289 -1.60362,-0.53454 -0.35636,-0.35636 0.56696,-0.25646 -0.26727,-0.53454 -0.58586,-0.19528 -1.74576,0.12513 -2.13816,-0.26727 -0.83153,-0.83153 -4.428871,-1.41263 -5.879926,-2.13815 z"
       id="path5988"
       inkscape:connector-curvature="0" />
  </g>
  <g
     inkscape:label="Brcken"
     inkscape:groupmode="layer"
     id="layer1"
     style="display:inline">
    <path
       style="fill:#808080;fill-opacity:1;stroke:#808080;stroke-width:1.5;stroke-linecap:butt;stroke-linejoin:miter;stroke-miterlimit:4;stroke-dasharray:none;stroke-opacity:1"
       d="m 189.02637,186.75132 3.60814,-3.47451"
       id="path6073"
       inkscape:connector-curvature="0" />
    <path
       style="fill:none;stroke:#808080;stroke-width:1.5;stroke-linecap:butt;stroke-linejoin:miter;stroke-miterlimit:4;stroke-dasharray:none;stroke-opacity:1"
       d="m 146.98549,136.45461 4.06324,-4.15774"
       id="path6071"
       inkscape:connector-curvature="0" />
  </g>
  <g
     inkscape:groupmode="layer"
     id="layer3"
     inkscape:label="Wege 1"
     sodipodi:insensitive="true">
    <g
       style="display:inline;stroke:#000000;stroke-width:0.5;stroke-miterlimit:4;stroke-dasharray:none;stroke-opacity:0.01960784"
       id="g6069">
      <path
         style="fill:none;stroke:#000000;stroke-width:0.5;stroke-linecap:butt;stroke-linejoin:miter;stroke-miterlimit:4;stroke-dasharray:none;stroke-opacity:0.01960784"
         d="m 10.690781,103.22959 c 1.592837,0.4995 5.484259,-0.93021 6.681738,0.26727 2.297485,2.29749 11.613286,3.06066 12.294398,3.74177 0.983993,0.984 5.821224,1.01038 6.147199,1.33635 0.400905,0.40091 1.469983,0.13364 1.870887,0.53454 3.376544,3.37655 17.388017,2.40543 23.786989,2.40543 2.403081,0 5.981033,-0.43344 7.216275,0.80181 0.445449,0.44544 1.692709,0.0891 2.138156,0.53453 0.379711,0.37972 2.647368,0.25461 3.207237,0.53454 2.455933,1.22797 14.067612,-1.96855 15.234361,-0.80181 0.560734,0.56074 2.026399,0.69006 2.405425,1.06908 1.995191,1.99519 5.075013,2.40232 6.949009,4.27632 0.356359,0.35635 1.247256,0.17817 1.603615,0.53453 1.16523,1.16524 2.09268,2.35995 3.47451,3.74178 0.50476,0.50476 -0.10946,2.56324 0.53453,3.20723 0.94229,0.94229 1.89901,1.899 2.93997,2.93997 1.10289,1.10289 3.26049,1.0957 4.81085,1.87088 3.14222,1.57112 5.01608,3.14519 7.21628,5.34539 0.13363,0.13364 0.66817,-0.13363 0.80181,0 1.43593,1.43594 8.03366,1.08466 8.28535,1.33635 0.51475,0.51475 2.55324,0.68236 2.93997,1.06908 1.48643,1.48643 5.01878,2.34609 6.41446,3.74177 0.44545,0.44545 0.35636,1.42544 0.80181,1.87089 0.44545,0.44545 1.15817,0.62363 1.60362,1.06908 0.13364,0.13363 -0.13363,0.66817 0,0.80181 1.69705,1.69704 1.8391,3.97725 3.47451,5.61266 0.18517,0.18517 0.0821,1.15116 0.26726,1.33634 0.66708,0.66708 1.08508,2.15416 1.87089,2.93997 1.48029,1.48028 2.93476,3.73656 4.27631,5.07812 0.95774,0.95774 -0.027,6.38749 0.53454,6.94901 0.53454,0.53454 0.26727,1.87088 0.80181,2.40542 0.62201,0.62201 0.75398,2.09033 1.33635,2.6727 0.12599,0.12599 0.40855,-0.12599 0.53454,0 1.089,1.089 1.68095,3.89645 2.40542,5.34539 0.31878,0.63755 -0.26952,3.47226 0.26727,4.00904 1.10671,1.10671 2.14408,5.88585 3.47451,7.21628 0.68845,0.68845 0.82127,5.38431 1.33634,6.41447 0.64326,1.61259 0.41175,4.68806 1.33635,5.61266 0.29805,0.29805 0,2.47163 0,2.93996 0,4.97618 0.26727,9.70755 0.26727,14.9671 0,0.89472 0.56937,5.04329 0,5.61266 -0.62947,0.62947 -0.80181,4.91086 -0.80181,6.41447"
         id="path6055"
         inkscape:connector-curvature="0" />
      <path
         style="fill:none;stroke:#000000;stroke-width:0.5;stroke-linecap:butt;stroke-linejoin:miter;stroke-miterlimit:4;stroke-dasharray:none;stroke-opacity:0.01960784"
         d="m 132.63251,139.0103 c 2.62126,1.27036 3.98774,0.19873 5.81311,0.16704 0.1267,-0.002 0.7211,-0.0807 0.8018,0 0.13364,0.13364 0.53454,0 0.66818,0.13364 1.74362,1.74362 5.14017,-0.0674 6.28083,-2.00452 l 5.34539,-5.47903 c 0.64553,-0.75802 1.2997,-0.70913 1.72753,-1.13695 1.32248,-1.32249 8.31742,3.21474 8.88244,3.77976 1.25182,1.25182 1.74263,2.87656 2.83482,3.96875 1.35311,1.35311 3.09619,2.34024 4.34672,3.59077 0.32581,0.3258 1.13973,0.38377 1.51191,0.75595 1.21046,1.21047 1.96479,4.23266 2.64583,4.91369 0.67815,0.67816 1.72993,1.75896 2.26786,2.83483 0.62256,1.24513 4.90601,3.96106 6.42559,5.48065 0.17464,0.17464 0.86865,0.30168 1.13393,0.56697 0.35626,0.35626 0.51411,0.89208 0.75595,1.13392 0.71346,0.71346 1.64732,1.08035 2.26786,1.7009 1.13199,1.13199 2.15437,2.15436 3.2128,3.21279 0.47821,0.47821 0.65572,1.41168 1.13393,1.88989 0.82685,0.82684 1.71013,1.33215 2.45684,2.07886 0.96951,0.96951 4.86635,2.07887 6.61459,2.07887 1.06818,0 4.1194,-0.41631 4.7247,0.18899"
         id="path6057"
         inkscape:connector-curvature="0"
         sodipodi:nodetypes="cssscccsscccsccscscssc" />
      <path
         style="fill:none;stroke:#000000;stroke-width:0.5;stroke-linecap:butt;stroke-linejoin:miter;stroke-miterlimit:4;stroke-dasharray:none;stroke-opacity:0.01960784"
         d="m 151.94643,131.44643 c 1.05308,-0.55379 1.08807,-0.89909 1.70089,-1.51191 1.0079,-1.0079 1.77289,-1.5839 2.64583,-2.45684 0.96278,-0.96278 -1.27799,-3.82469 -0.18899,-4.91369 0.88826,-0.88826 5.62055,1.74999 5.85864,1.5119 1.88272,-1.88273 -3.64361,-5.04984 -2.64584,-6.04762 1.07429,-1.07429 5.5185,2.23002 6.80357,0.94494 1.23956,-1.23955 -5.12074,-3.57271 -3.96875,-4.7247 1.40333,-1.40333 6.76797,0.98055 7.9375,-0.18899 0.24433,-0.24432 -0.15067,-0.71764 -0.18898,-0.75595 -0.22049,-0.22049 0.0315,-0.91344 -0.18899,-1.13393 -0.30386,-0.30386 -4.49916,-3.62733 -3.40179,-4.7247 1.30761,-1.30761 7.07272,0.26915 7.74851,0.94494 0.28725,0.28725 1.24065,-0.18899 1.32292,-0.18899 0.60247,0 2.64618,-1.32257 1.70089,-2.26786 -0.51972,-0.51972 -0.64349,-1.77742 -1.13393,-2.26785 -0.38369,-0.3837 -0.86879,-0.67982 -1.32291,-1.13393 -1.24916,-1.24916 -4.25165,-1.79481 -5.48066,-3.023812 -0.11858,-0.118586 -0.79881,-0.04286 -0.94494,-0.188986 -0.3681,-0.368107 -0.9742,-0.407242 -1.32291,-0.755955 -0.0891,-0.08909 0.0891,-0.288885 0,-0.377975 -0.44098,-0.440971 -1.25992,-0.503968 -1.7009,-0.944941 -1.46125,-1.46126 -3.35965,-2.792691 -4.7247,-4.157737 -1.17597,-1.175977 -1.37162,-2.883521 -2.45684,-3.96875 -0.46329,-0.46329 -0.37343,-2.830271 -0.94494,-3.401785 -0.20264,-0.202633 -0.2631,-3.097913 -0.56697,-3.401787 -0.13075,-0.130752 -1.90816,-6.218325 -1.13393,-6.992559 1.05605,-1.056045 2.15034,-4.678648 3.02381,-6.425594 0.39349,-0.786982 -0.0136,-2.051553 0.37798,-2.834823 0.16085,-0.321701 0.18282,-1.505738 0.37797,-1.700892 2.34633,-2.346328 2.07887,-8.577895 2.07887,-13.040178 0.22464,-6.11378 -3.2988,-7.834523 -6.80357,-11.339286 -0.24256,-0.242565 -0.76325,-0.196287 -0.94494,-0.377976 -1.03986,-1.039865 -2.09231,-1.727789 -2.64583,-2.834821"
         id="path6059"
         inkscape:connector-curvature="0" />
      <path
         style="fill:none;stroke:#000000;stroke-width:0.5;stroke-linecap:butt;stroke-linejoin:miter;stroke-miterlimit:4;stroke-dasharray:none;stroke-opacity:0.01960784"
         d="m 161.01786,54.717261 c 0.1644,-3.124633 2.54625,-4.535715 5.66964,-4.535715 0.17922,0 1.0198,-0.114128 1.13393,0 0.63378,0.633786 2.47735,1.13393 3.77976,1.13393 1.72907,0 -0.49375,-3.475003 0.18899,-4.157739 1.89541,-1.895411 4.31673,2.108859 5.48065,0.944941 1.02693,-1.026924 -0.49621,-3.094561 0.37798,-3.96875 0.83643,-0.836435 2.37377,3.401785 3.59077,3.401785 1.67657,0 0.56672,-3.968501 1.13393,-4.535715 0.20866,-0.208658 0.51474,-0.188986 0.94494,-0.188986 0.11533,0 0.68231,-0.07364 0.75595,0 0.22049,0.220485 0.72446,0.15749 0.94494,0.377975 0.60228,0.602274 1.06563,1.632599 1.7009,2.267858 0.92356,0.92357 1.92789,1.549916 2.83482,2.456844 0.35263,0.352631 2.71905,0.640186 3.02381,0.944941 0.53105,0.531058 1.81256,0.111667 2.26785,0.566965 0.18899,0.188986 0.75596,0 0.94494,0.188986 0.27934,0.279337 0.95599,0.18899 1.51191,0.18899 2.97741,0 5.63288,-0.871427 6.61458,-2.834823"
         id="path6061"
         inkscape:connector-curvature="0" />
      <path
         style="fill:none;stroke:#000000;stroke-width:0.5;stroke-linecap:butt;stroke-linejoin:miter;stroke-miterlimit:4;stroke-dasharray:none;stroke-opacity:0.01960784"
         d="m 88.25744,36.95238 c 0.296066,0.669089 -0.327031,1.802789 0,2.456847 0.341852,0.683701 1.493041,10.791184 0.944941,11.339284 -0.467773,0.467773 -1.511906,4.295363 -1.511906,5.102678 0,0.457173 -0.625412,2.398397 -0.188987,2.834822 0.418481,0.418484 0.453811,1.096611 0.755952,1.700893 0.236945,0.47389 1.079875,0.836837 1.511903,1.700892 0.81816,1.636319 1.423151,2.657311 2.078871,3.96875 0.485053,0.970106 1.131295,4.155107 1.889879,4.913691 0.876271,0.876271 2.14104,1.952051 3.023812,2.834823 0.879345,0.879345 3.396395,0.939553 4.157735,1.700892 2.13559,2.135582 3.78663,4.164608 6.04762,6.425594 2.0198,2.019797 2.21031,5.990069 3.77976,7.559524 0.74927,0.749271 4.62414,1.700893 5.85863,1.700893 0.51212,0 2.8869,-0.325896 3.2128,0 1.45599,1.455988 3.65835,2.146445 4.91369,3.401784 0.88137,0.881365 1.57245,2.517387 2.64583,3.590775 0.64998,0.649975 0.2069,2.096778 0.75596,2.645828 0.3846,0.38461 0.89853,0.89854 1.32291,1.32292 0.4888,0.4888 0.56505,3.58886 1.13393,4.15774 0.82318,0.82318 1.38074,2.32568 2.26786,3.2128 0.86763,0.86763 2.26627,1.6993 3.02381,2.45684 1.40161,1.40161 2.27274,3.21768 3.59077,4.53572 1.60709,1.60708 4.70609,2.06026 6.23661,3.59077 1.38591,1.38591 2.77183,2.77183 4.15774,4.15774 0.72214,0.72213 0.98339,2.68428 1.70089,3.40178 0.57158,0.57158 1.70089,1.81458 1.70089,2.83483"
         id="path6063"
         inkscape:connector-curvature="0" />
      <path
         style="fill:none;stroke:#000000;stroke-width:0.5;stroke-linecap:butt;stroke-linejoin:miter;stroke-miterlimit:4;stroke-dasharray:none;stroke-opacity:0.01960784"
         d="m 195.13021,167.54315 c -0.33078,0.33073 0.0472,1.37017 -0.28348,1.7009 -0.14469,0.14468 -0.11961,0.59207 -0.28349,0.75595 -0.31994,0.31995 -0.22189,0.72727 -0.47247,1.22842 -0.64309,1.28619 -1.17933,3.82885 0,5.00819 0.11029,0.11024 0.0788,0.36222 0.18899,0.47247 0.22367,0.22366 0.25765,1.48606 0.37798,1.6064 0.18309,0.18309 0.26632,0.53265 0.37797,0.75595 0.10009,0.20018 0.36036,0.17136 0.47247,0.28348 0.0445,0.0446 -0.0563,0.16079 0,0.18899 0.35901,0.1795 1.09125,0.0518 1.32292,0.28348 0.0274,0.0274 0.0274,0.63406 0,0.66146 -0.25264,0.25264 -0.49768,0.24884 -0.94494,0.47247 -1.24659,0.62329 -1.69507,1.04214 -2.92932,1.88988 l -4.34672,4.53571 c -0.18901,2.22903 -0.46002,0.30751 -0.85328,0.70077 -0.63621,0.63621 -1.19429,3.61655 -0.4009,4.40994 0.84309,0.8431 1.9011,1.76747 2.80633,2.6727 0.60312,0.60312 1.04732,1.98276 1.73725,2.6727 0.12054,0.12053 0.0454,0.75901 0.13364,0.93544 0.68752,1.37505 0.21441,5.69344 0.93544,6.41447 0.31866,0.31866 0.416,0.95054 0.80181,1.33634 0.43901,0.43901 1.32592,1.05866 1.73725,1.46999 0.55444,0.55444 1.03579,1.8376 1.73725,2.53906 0.0876,0.0876 0.0667,0.46759 0.13364,0.53454 0.62983,0.62983 0.99531,1.79712 1.60361,2.40542 0.16203,0.16203 0.13056,0.6651 0.26727,0.80181 0.6991,0.6991 1.00595,2.07503 1.73725,2.80633 0.15618,0.15618 0.36556,0.49919 0.53454,0.66818 0.58477,0.58476 2.11587,0.22269 2.53906,1.06907"
         id="path6065"
         inkscape:connector-curvature="0" />
      <path
         style="fill:none;stroke:#000000;stroke-width:0.5;stroke-linecap:butt;stroke-linejoin:miter;stroke-miterlimit:4;stroke-dasharray:none;stroke-opacity:0.01960784"
         d="m 35.907739,152.4241 c -4.310552,-1.09557 -8.833588,-2.18857 -13.04018,-3.59077 -1.037122,-0.34571 -2.91065,-0.0758 -3.590773,-0.75595 -0.278349,-0.27835 -6.854765,-0.42917 -7.559524,-1.13393 -0.346478,-0.34648 -0.976439,-0.40947 -1.322917,-0.75595 -0.440972,-0.44097 -0.6929561,-1.07093 -1.1339284,-1.51191 -0.4583049,-0.4583 1.3229164,-3.43758 1.3229164,-4.53571 0,-0.1232 -1.4433341,-3.28137 -0.7559522,-3.96875 0.5310572,-0.53106 0.8676202,-1.05661 1.3229162,-1.5119 0.363575,-0.36358 1.789485,0.23918 2.267858,0 1.375376,-0.68769 4.276183,-0.0592 5.291666,-0.56697 1.178922,-0.58946 4.01,-0.94494 5.480655,-0.94494 1.465615,0 10.897277,0.50293 9.071429,-1.32292 -0.455792,-0.45579 -8.619871,-1.01852 -7.9375,-1.70089 0.669105,-0.66911 4.569199,-0.97843 4.913689,-1.32292 0.50397,-0.50396 2.519841,0.50397 3.023811,0 0.02945,-0.0294 0.02945,-0.7265 0,-0.75595 -0.565189,-0.56519 -9.178115,-1.21623 -8.126489,-2.26786 1.684602,-1.6846 6.966075,-0.72946 7.370535,-1.13393 0.251984,-0.25198 0.881946,-0.12599 1.13393,-0.37797 0.692955,-0.69296 1.196925,-1.5749 1.889879,-2.26786 0.685816,-0.68581 2.193087,-0.68118 2.834823,-1.32292 0.535466,-0.53546 2.677332,0.53547 3.212798,0 1.070933,-1.07093 2.330852,-1.95287 3.401785,-3.0238 0.839094,-0.8391 2.883871,-0.61602 3.779761,-1.51191 0.219022,-0.21902 6.517383,-0.65875 7.748513,-1.88988 1.350656,-1.35066 -5.669642,-0.15137 -5.669642,-1.32292 0,-0.46318 0.334581,-0.73425 0.755951,-0.94494 0.522235,-0.26111 1.252157,-0.34259 1.700893,-0.56696"
         id="path6067"
         inkscape:connector-curvature="0" />
    </g>
  </g>
</svg>
